<svg width="128" height="30" viewBox="0 0 128 30" fill="none" xmlns="http://www.w3.org/2000/svg">
<path d="M8.88024 17.1886H3.46198V20.9571H8.44082V23.7625H3.46198V29.7269H0.00372374V14.3721H8.88024V17.1886ZM15.1562 29.995C13.329 29.995 11.8925 29.4828 10.8465 28.4583C9.80046 27.4338 9.27746 26.0436 9.27746 24.2876C9.27746 22.4736 9.8199 21.0548 10.9048 20.0311C11.9897 19.0075 13.4569 18.4952 15.3064 18.4944C17.127 18.4944 18.5545 19.0067 19.5889 20.0311C20.6233 21.0556 21.1409 22.4103 21.1418 24.0951C21.1418 25.9157 20.608 27.354 19.5405 28.4099C18.473 29.4658 17.0116 29.9942 15.1562 29.995ZM15.2419 21.0862C14.4425 21.0862 13.8218 21.361 13.3799 21.9105C12.938 22.4599 12.7167 23.2378 12.7158 24.2441C12.7158 26.351 13.5653 27.404 15.2642 27.4032C16.8845 27.4032 17.6947 26.3216 17.6947 24.1585C17.6963 22.1103 16.88 21.0862 15.2456 21.0862H15.2419ZM32.5716 29.7269H29.2028V28.0611H29.1494C28.3136 29.3537 27.1964 30 25.7979 30C23.2549 29.9967 21.9834 28.4567 21.9834 25.3799V18.7625H25.356V25.082C25.356 26.6311 25.9696 27.4057 27.1968 27.4057C27.472 27.4164 27.7461 27.3647 27.9985 27.2544C28.2509 27.1441 28.475 26.9781 28.6541 26.7689C29.0174 26.3444 29.1994 25.768 29.2003 25.0398V18.7625H32.5729L32.5716 29.7269ZM44.2547 29.7269H40.8858V23.6346C40.8858 21.9349 40.2793 21.0854 39.0661 21.0862C38.7902 21.081 38.5167 21.139 38.2667 21.2559C38.0167 21.3727 37.7967 21.5452 37.6237 21.7603C37.2447 22.2096 37.0556 22.7806 37.0564 23.4733V29.7269H33.6689V18.7625H37.0527V20.5004H37.0949C37.9018 19.1664 39.076 18.499 40.6177 18.4981C43.0457 18.4981 44.2593 20.0042 44.2585 23.0165L44.2547 29.7269ZM56.479 29.7269H53.099V28.2175H53.0568C52.2847 29.4017 51.1539 29.9942 49.6643 29.995C48.2939 29.995 47.1912 29.5113 46.3562 28.544C45.5213 27.5766 45.1038 26.2256 45.1038 24.4911C45.1038 22.6772 45.5639 21.2244 46.4841 20.1329C47.4043 19.0414 48.6109 18.4952 50.1037 18.4944C51.518 18.4944 52.5031 19.0013 53.0592 20.015H53.1015V13.4945H56.4852L56.479 29.7269ZM53.1598 24.3893V23.5651C53.1823 22.9159 52.9609 22.2817 52.5391 21.7876C52.3202 21.5511 52.0518 21.3657 51.7531 21.2446C51.4545 21.1236 51.1328 21.0698 50.8109 21.0871C50.4891 21.1044 50.175 21.1923 49.8911 21.3447C49.6071 21.4971 49.3601 21.7102 49.1678 21.9688C48.7457 22.5588 48.5351 23.3673 48.536 24.3943C48.536 25.3592 48.7391 26.1015 49.1454 26.6212C49.5518 27.1409 50.1157 27.4016 50.8373 27.4032C51.1622 27.4096 51.4838 27.3381 51.7754 27.1947C52.0669 27.0513 52.3199 26.8402 52.5131 26.579C52.9467 26.0287 53.1635 25.3004 53.1635 24.3943L53.1598 24.3893ZM67.827 25.2061H60.6746C60.7888 26.7975 61.7918 27.5931 63.6835 27.5931C64.8901 27.5931 65.9501 27.3076 66.8637 26.7366V29.1783C65.85 29.7211 64.533 29.9926 62.9127 29.9926C61.1426 29.9926 59.7685 29.5018 58.7903 28.5204C57.8122 27.5389 57.3231 26.1706 57.3231 24.4154C57.3231 22.5948 57.8515 21.1533 58.9082 20.0907C59.965 19.0282 61.2642 18.4961 62.8059 18.4944C64.4047 18.4944 65.6414 18.9694 66.5162 19.9194C67.3909 20.8694 67.8278 22.1579 67.827 23.7848V25.2061ZM64.6902 23.1282C64.6902 21.5559 64.0547 20.7697 62.7836 20.7697C62.5136 20.7706 62.2473 20.8316 62.0038 20.9482C61.7604 21.0647 61.5459 21.234 61.3759 21.4437C60.9695 21.9173 60.7174 22.5037 60.6535 23.1245L64.6902 23.1282ZM75.955 21.8112C75.5157 21.5834 75.0259 21.4702 74.5312 21.4822C73.7947 21.4822 73.22 21.7516 72.8071 22.2903C72.3941 22.829 72.1872 23.5626 72.1864 24.4911V29.7269H68.8026V18.7625H72.1864V20.797H72.2286C72.764 19.3124 73.7277 18.5701 75.1196 18.5701C75.4035 18.5567 75.6873 18.5988 75.955 18.6943V21.8112ZM76.7246 29.4377V26.6957C77.2458 27.0131 77.8051 27.2634 78.3892 27.4404C78.8975 27.5982 79.4259 27.6818 79.9582 27.6887C80.5573 27.6887 81.0302 27.606 81.377 27.4404C81.7237 27.2749 81.8967 27.0267 81.8958 26.6957C81.898 26.5948 81.8782 26.4946 81.8377 26.4022C81.7972 26.3098 81.7369 26.2274 81.6612 26.1607C81.481 26.0043 81.2764 25.8785 81.0555 25.7883C80.7926 25.6746 80.5227 25.578 80.2474 25.4991C79.9544 25.4163 79.6722 25.3199 79.4008 25.2098C79.0042 25.0631 78.6195 24.8859 78.2501 24.6798C77.9381 24.5063 77.656 24.2838 77.4147 24.0207C77.1882 23.7675 77.0136 23.4723 76.9008 23.1518C76.7756 22.7754 76.716 22.3803 76.7246 21.9837C76.7096 21.4289 76.8483 20.8807 77.1255 20.3998C77.3919 19.958 77.759 19.5854 78.1968 19.3124C78.668 19.0202 79.1856 18.8103 79.7273 18.6918C80.3157 18.5577 80.9175 18.491 81.521 18.4932C82.0159 18.4937 82.5101 18.5315 82.9993 18.6061C83.4986 18.6808 83.9922 18.7899 84.4765 18.9326V21.5393C84.0476 21.2913 83.5858 21.1049 83.1049 20.9857C82.6347 20.863 82.1509 20.8 81.6649 20.7983C81.4567 20.7978 81.2488 20.8173 81.0443 20.8566C80.8646 20.8907 80.6901 20.9483 80.5254 21.0279C80.3859 21.0944 80.2646 21.1936 80.1717 21.3171C80.088 21.4343 80.0445 21.5754 80.0475 21.7193C80.0443 21.909 80.1135 22.0928 80.2412 22.2332C80.3817 22.3876 80.5501 22.514 80.7377 22.6056C80.9603 22.7162 81.191 22.8095 81.4279 22.8849C81.6811 22.9676 81.9331 23.0504 82.1838 23.1331C82.6014 23.2773 83.0091 23.449 83.404 23.647C83.7468 23.818 84.0625 24.0384 84.3412 24.3012C84.6002 24.5486 84.8045 24.8475 84.9407 25.1788C85.1087 25.6443 85.1765 26.1401 85.1395 26.6336C85.1024 27.1271 84.9616 27.6072 84.726 28.0425C84.4477 28.5004 84.0649 28.8858 83.6088 29.1671C83.111 29.4684 82.5652 29.6821 81.9951 29.7989C81.3705 29.9324 80.7334 29.999 80.0947 29.9975C78.9472 30.0097 77.8065 29.8202 76.7246 29.4377ZM103.317 29.7269H99.8413V23.4683H93.4908V29.722H90.0325V14.3721H93.4908V20.4966H99.8512V14.3721H103.327L103.317 29.7269ZM115 29.7269H111.627V28.0611H111.574C110.738 29.3537 109.621 30 108.222 30C105.68 30 104.41 28.4616 104.41 25.3849V18.7625H107.783V25.082C107.783 26.6311 108.397 27.4057 109.624 27.4057C109.899 27.4164 110.173 27.3647 110.426 27.2544C110.678 27.1441 110.902 26.9781 111.081 26.7689C111.445 26.3444 111.627 25.768 111.627 25.0398V18.7625H115V29.7269ZM119.477 28.4533V29.7269H116.094V13.4945H119.477V20.411H119.52C120.355 19.1333 121.544 18.4944 123.086 18.4944C124.498 18.4944 125.587 18.9798 126.352 19.9505C127.116 20.9212 127.498 22.2489 127.497 23.9338C127.497 25.7626 127.051 27.2298 126.159 28.3354C125.267 29.441 124.075 29.9942 122.582 29.995C121.236 29.995 120.217 29.4811 119.523 28.4533H119.477ZM119.424 23.827V24.9579C119.424 25.6646 119.627 26.2496 120.033 26.713C120.226 26.9384 120.466 27.1179 120.737 27.2384C121.007 27.3589 121.301 27.4173 121.597 27.4094C122.369 27.4094 122.967 27.1115 123.391 26.5157C123.816 25.9199 124.028 25.0758 124.028 23.9834C124.028 23.0731 123.833 22.3648 123.445 21.8583C123.056 21.3519 122.502 21.0945 121.784 21.0862C121.464 21.0795 121.147 21.1442 120.855 21.2756C120.563 21.407 120.305 21.6019 120.098 21.8459C119.649 22.3532 119.425 23.0136 119.425 23.827H119.424Z" fill="#CAC6D6"/>
<path d="M6.85444 6.84608H5.80431V2.71753C5.80431 2.3799 5.82541 1.9653 5.86637 1.47623H5.84651C5.80334 1.68047 5.74525 1.88127 5.67273 2.07702L3.76858 6.84608H3.03994L1.12958 2.11798C1.05789 1.91011 1.00147 1.69728 0.960764 1.4812H0.943386C0.96697 1.7369 0.978142 2.15274 0.978142 2.73118V6.85105H0V0.467057H1.48956L3.16655 4.71478C3.26426 4.95272 3.34718 5.19648 3.41481 5.44466H3.43715C3.54639 5.10951 3.63535 4.86125 3.70403 4.69988L5.41206 0.46954H6.84948L6.85444 6.84608ZM8.51033 1.33472C8.35003 1.33772 8.19478 1.27855 8.07712 1.16963C8.0183 1.11729 7.97161 1.05274 7.94031 0.980486C7.90901 0.908236 7.89385 0.830026 7.89589 0.751314C7.89414 0.672095 7.90941 0.593422 7.94067 0.520613C7.97194 0.447803 8.01847 0.382553 8.07712 0.329273C8.13469 0.274045 8.20259 0.230709 8.27692 0.201742C8.35126 0.172775 8.43057 0.158746 8.51033 0.160457C8.67486 0.156337 8.83443 0.216954 8.95472 0.329273C9.01234 0.382396 9.05833 0.446883 9.08979 0.518667C9.12124 0.590452 9.13748 0.667975 9.13748 0.746349C9.13748 0.824723 9.12124 0.902247 9.08979 0.974031C9.05833 1.04582 9.01234 1.1103 8.95472 1.16342C8.89557 1.21983 8.82587 1.264 8.74961 1.2934C8.67335 1.32279 8.59204 1.33684 8.51033 1.33472ZM9.02175 6.84608H7.99023V2.29052H9.02175V6.84608ZM13.4023 6.6363C13.0072 6.85735 12.5602 6.96878 12.1076 6.95904C11.4323 6.95904 10.887 6.74761 10.4716 6.32474C10.0562 5.90187 9.84928 5.35404 9.85093 4.68126C9.85093 3.93069 10.074 3.32783 10.52 2.87269C10.966 2.41755 11.5631 2.18998 12.3112 2.18998C12.6888 2.1827 13.0636 2.25722 13.4097 2.40845V3.35928C13.1203 3.13181 12.7637 3.00655 12.3956 3.00303C12.1956 2.99642 11.9965 3.03253 11.8116 3.10894C11.6266 3.18535 11.4601 3.30032 11.3231 3.44617C11.0361 3.76175 10.8857 4.17814 10.9048 4.6043C10.9048 5.07599 11.036 5.44838 11.2983 5.72147C11.4363 5.85929 11.6015 5.9668 11.7834 6.03712C11.9653 6.10744 12.1598 6.13903 12.3546 6.12986C12.7402 6.12476 13.1118 5.98464 13.4048 5.73388L13.4023 6.6363ZM16.8394 3.27363C16.6817 3.16601 16.4925 3.11444 16.302 3.12716C16.1502 3.12781 16.0009 3.16586 15.8673 3.23796C15.7337 3.31006 15.6199 3.41397 15.5361 3.54051C15.3325 3.81608 15.2295 4.19095 15.2295 4.66637V6.84608H14.198V2.29052H15.2295V3.23515H15.2481C15.33 2.94828 15.4908 2.69021 15.7123 2.49037C15.9048 2.31801 16.154 2.22256 16.4124 2.22225C16.5597 2.21315 16.7067 2.24222 16.8394 2.30666V3.27363ZM19.2811 6.95904C18.5785 6.95904 18.0174 6.74595 17.5979 6.31977C17.1783 5.8936 16.9685 5.32963 16.9685 4.62789C16.9685 3.86242 17.187 3.26494 17.6239 2.83545C18.0609 2.40596 18.6505 2.19081 19.3928 2.18998C20.1045 2.18998 20.6589 2.39893 21.0561 2.81683C21.4533 3.23474 21.6519 3.81401 21.6519 4.55465C21.6519 5.28122 21.4376 5.86298 21.009 6.29991C20.5803 6.73685 20.0043 6.95656 19.2811 6.95904ZM19.3295 3.01296C19.1484 3.00505 18.968 3.03901 18.8022 3.11221C18.6365 3.18541 18.4898 3.29587 18.3737 3.435C18.1395 3.71719 18.0224 4.10571 18.0224 4.60058C18.0224 5.07848 18.1403 5.45459 18.3786 5.72892C18.4961 5.86447 18.6425 5.9718 18.8071 6.04294C18.9718 6.11407 19.1503 6.14718 19.3295 6.13978C19.5065 6.15034 19.6834 6.11923 19.8462 6.04895C20.009 5.97867 20.153 5.87118 20.2667 5.73512C20.4839 5.46576 20.5931 5.08096 20.5931 4.5832C20.5931 4.08544 20.4839 3.69443 20.2667 3.42259C20.1543 3.28426 20.0108 3.17448 19.848 3.10221C19.6851 3.02994 19.5074 2.99723 19.3295 3.00675V3.01296ZM22.1845 6.70954V5.75374C22.5485 6.03922 22.9979 6.19399 23.4605 6.19316C24.0836 6.19316 24.3952 6.00945 24.3952 5.64203C24.398 5.54743 24.3697 5.45454 24.3145 5.37763C24.2563 5.29967 24.1833 5.23388 24.0998 5.18399C23.9987 5.12231 23.8913 5.07154 23.7795 5.03255C23.6554 4.98786 23.5189 4.93821 23.3674 4.88111C23.1943 4.81305 23.0256 4.73428 22.8622 4.64526C22.7247 4.57046 22.5992 4.47548 22.4898 4.36349C22.3919 4.26 22.3155 4.13806 22.2651 4.00475C22.2127 3.85485 22.1875 3.69679 22.1907 3.53803C22.1861 3.33358 22.24 3.13207 22.3458 2.9571C22.4524 2.78724 22.5952 2.6431 22.7642 2.53506C22.9475 2.41742 23.1487 2.33023 23.36 2.27687C23.5849 2.21838 23.8165 2.18918 24.0489 2.18998C24.4344 2.18352 24.8178 2.24833 25.1797 2.38114V3.2848C24.8547 3.06353 24.4693 2.9482 24.0762 2.95462C23.957 2.95034 23.8377 2.96118 23.7212 2.98689C23.626 3.00896 23.5351 3.04626 23.4518 3.09737C23.3821 3.14064 23.3231 3.19922 23.2793 3.26867C23.2373 3.33468 23.2154 3.41141 23.216 3.48962C23.2134 3.57667 23.2353 3.6627 23.2793 3.73788C23.3256 3.81143 23.3885 3.87308 23.463 3.91786C23.556 3.97521 23.6546 4.02303 23.7572 4.06061C23.8714 4.10406 24.0054 4.14999 24.1507 4.20088C24.3307 4.27442 24.5068 4.35729 24.6782 4.44914C24.823 4.52474 24.9567 4.61998 25.0754 4.73215C25.1861 4.83463 25.2745 4.95888 25.3349 5.0971C25.3975 5.25494 25.4275 5.42385 25.423 5.59362C25.4279 5.80621 25.3723 6.01581 25.2629 6.19813C25.155 6.37119 25.0089 6.51726 24.8359 6.62513C24.6445 6.74236 24.4347 6.8263 24.2152 6.87339C23.9739 6.92938 23.7269 6.95729 23.4791 6.95656C23.0361 6.9652 22.5963 6.87886 22.1894 6.70333L22.1845 6.70954ZM28.1899 6.95904C27.4873 6.95904 26.9262 6.74595 26.5067 6.31977C26.0871 5.8936 25.8773 5.32963 25.8773 4.62789C25.8773 3.86242 26.0958 3.26494 26.5327 2.83545C26.9697 2.40596 27.5593 2.19081 28.3016 2.18998C29.0133 2.18998 29.5677 2.39893 29.9649 2.81683C30.3621 3.23474 30.5607 3.81401 30.5607 4.55465C30.5607 5.28122 30.3464 5.86298 29.9177 6.29991C29.4891 6.73685 28.9131 6.95656 28.1899 6.95904ZM28.2383 3.01296C28.0572 3.00505 27.8768 3.03901 27.711 3.11221C27.5452 3.18541 27.3986 3.29587 27.2825 3.435C27.0475 3.71719 26.9304 4.10571 26.9312 4.60058C26.9312 5.07848 27.0491 5.45459 27.2874 5.72892C27.4049 5.86447 27.5513 5.9718 27.7159 6.04294C27.8806 6.11407 28.0591 6.14718 28.2383 6.13978C28.4153 6.15034 28.5922 6.11923 28.755 6.04895C28.9178 5.97867 29.0618 5.87118 29.1755 5.73512C29.3927 5.46576 29.5019 5.08096 29.5019 4.5832C29.5019 4.08544 29.3927 3.69443 29.1755 3.42259C29.0635 3.28479 28.9206 3.17533 28.7584 3.10308C28.5962 3.03083 28.4193 2.99783 28.242 3.00675L28.2383 3.01296ZM33.8067 0.948681C33.662 0.866037 33.498 0.823207 33.3313 0.824551C32.8298 0.824551 32.5791 1.10798 32.5791 1.67484V2.29549H33.6379V3.10481H32.5841V6.85105H31.5513V3.09985H30.773V2.29052H31.5513V1.55195C31.5409 1.33952 31.5778 1.12743 31.6594 0.931013C31.741 0.734593 31.8652 0.558743 32.023 0.416164C32.2721 0.2222 32.5641 0.0908624 32.8745 0.0331901C33.1849 -0.0244823 33.5046 -0.00680413 33.8067 0.0847381V0.948681ZM36.8467 6.80264C36.5965 6.91329 36.3243 6.9651 36.051 6.95408C35.1672 6.95408 34.7253 6.52997 34.7253 5.68175V3.09985H33.9644V2.29052H34.7253V1.23666L35.7568 0.942474V2.29052H36.8467V3.09985H35.7618V5.37763C35.7618 5.64699 35.8114 5.84063 35.9082 5.95607C35.9722 6.01921 36.0493 6.0675 36.1341 6.09753C36.2188 6.12756 36.3091 6.1386 36.3986 6.12986C36.5625 6.13322 36.7226 6.07971 36.8516 5.97842L36.8467 6.80264ZM42.3605 0.948681C42.2158 0.866037 42.0517 0.823207 41.8851 0.824551C41.3836 0.824551 41.1329 1.10798 41.1329 1.67484V2.29549H42.1917V3.10481H41.1378V6.85105H40.1063V3.09985H39.328V2.29052H40.1063V1.55195C40.0959 1.33952 40.1329 1.12743 40.2144 0.931013C40.296 0.734593 40.4202 0.558743 40.578 0.416164C40.8271 0.2222 41.1191 0.0908624 41.4295 0.0331901C41.7399 -0.0244823 42.0596 -0.00680413 42.3618 0.0847381L42.3605 0.948681ZM44.719 6.95904C44.0164 6.95904 43.4553 6.74595 43.0358 6.31977C42.6162 5.8936 42.4064 5.32963 42.4064 4.62789C42.4064 3.86242 42.6249 3.26494 43.0618 2.83545C43.4988 2.40596 44.0884 2.19081 44.8307 2.18998C45.5424 2.18998 46.0968 2.39893 46.494 2.81683C46.8912 3.23474 47.0899 3.81401 47.0899 4.55465C47.0899 5.28122 46.8755 5.86298 46.4469 6.29991C46.0182 6.73685 45.4431 6.95656 44.7215 6.95904H44.719ZM44.7674 3.01296C44.5863 3.00505 44.4059 3.03901 44.2401 3.11221C44.0744 3.18541 43.9277 3.29587 43.8116 3.435C43.5757 3.71553 43.4578 4.10406 43.4578 4.60058C43.4578 5.07848 43.5757 5.45459 43.8141 5.72892C43.9315 5.86447 44.0779 5.9718 44.2426 6.04294C44.4072 6.11407 44.5857 6.14718 44.7649 6.13978C44.9419 6.15034 45.1189 6.11923 45.2816 6.04895C45.4444 5.97867 45.5884 5.87118 45.7021 5.73512C45.9193 5.46576 46.0285 5.08096 46.0285 4.5832C46.0285 4.08544 45.9193 3.69443 45.7021 3.42259C45.5902 3.28496 45.4476 3.1756 45.2856 3.10336C45.1237 3.03112 44.947 2.99802 44.7699 3.00675L44.7674 3.01296ZM50.5084 3.27984C50.3507 3.17222 50.1614 3.12064 49.9709 3.13336C49.8191 3.13401 49.6698 3.17207 49.5362 3.24417C49.4026 3.31626 49.2889 3.42018 49.205 3.54672C49.0006 3.82228 48.8984 4.19757 48.8984 4.67257V6.85229H47.8657V2.29673H48.8984V3.23515H48.9195C49.0019 2.9482 49.1632 2.69014 49.385 2.49037C49.5774 2.31781 49.8267 2.22233 50.0851 2.22225C50.2323 2.21332 50.3794 2.24238 50.5121 2.30666L50.5084 3.27984ZM53.1114 6.58665V5.49679C53.217 5.59148 53.3342 5.6724 53.4602 5.73761C53.5979 5.80987 53.7416 5.87009 53.8897 5.91759C54.0383 5.96572 54.1901 6.00347 54.344 6.03055C54.4819 6.05659 54.6219 6.0703 54.7623 6.07152C55.2067 6.07152 55.5377 5.99745 55.7553 5.84932C55.8612 5.77934 55.9471 5.68306 56.0045 5.5699C56.062 5.45675 56.089 5.33061 56.0831 5.20385C56.0868 5.06471 56.0487 4.92766 55.9738 4.81036C55.8927 4.69023 55.7895 4.58661 55.6697 4.505C55.5236 4.40453 55.3696 4.31611 55.2092 4.2406C55.0329 4.15619 54.843 4.06806 54.6419 3.9762C54.4247 3.86076 54.2236 3.74284 54.0361 3.62492C53.8594 3.51434 53.6961 3.38354 53.5496 3.23515C53.4132 3.09301 53.3031 2.92785 53.2243 2.74732C53.142 2.54577 53.1018 2.32946 53.1064 2.11178C53.1 1.83777 53.1701 1.5674 53.3088 1.331C53.4433 1.11038 53.6263 0.923202 53.8437 0.783588C54.075 0.635084 54.3298 0.526803 54.5972 0.463333C54.8815 0.393283 55.1733 0.358267 55.4661 0.359065C56.1339 0.359065 56.6201 0.434784 56.9246 0.586222V1.63139C56.563 1.37072 56.0975 1.23997 55.5282 1.23914C55.3707 1.23924 55.2136 1.25421 55.059 1.28383C54.9129 1.31093 54.7718 1.36033 54.6407 1.4303C54.5226 1.49467 54.4204 1.58458 54.3415 1.69346C54.2616 1.80644 54.2206 1.9424 54.2248 2.08074C54.221 2.21061 54.2519 2.33915 54.3142 2.45313C54.3806 2.56478 54.4694 2.66155 54.5749 2.73739C54.7063 2.833 54.8463 2.91612 54.9932 2.98565C55.157 3.06758 55.3482 3.15571 55.5642 3.25005C55.786 3.3659 55.9957 3.48755 56.1935 3.61499C56.3823 3.7355 56.5568 3.87709 56.7136 4.03703C56.8601 4.18737 56.9805 4.36104 57.0699 4.55093C57.16 4.75314 57.2049 4.97257 57.2015 5.19392C57.2152 5.46562 57.1552 5.73598 57.0278 5.97636C56.9004 6.21674 56.7103 6.41818 56.4778 6.55934C56.2434 6.70388 55.9854 6.80599 55.7156 6.86098C55.4158 6.92531 55.1099 6.95694 54.8033 6.95532C54.6965 6.95532 54.5662 6.94663 54.4098 6.93049C54.2534 6.91436 54.0945 6.89077 53.9319 6.85974C53.7757 6.82971 53.6211 6.7916 53.4689 6.74554C53.3431 6.70897 53.2228 6.65552 53.1114 6.58665ZM60.1607 6.79147C59.9106 6.90212 59.6384 6.95393 59.365 6.9429C58.4812 6.9429 58.0393 6.51879 58.0393 5.67057V3.09985H57.2784V2.29052H58.0393V1.23666L59.0709 0.942474V2.29052H60.1607V3.09985H59.0709V5.37763C59.0709 5.64699 59.1205 5.84063 59.2173 5.95607C59.2813 6.01921 59.3584 6.0675 59.4431 6.09753C59.5279 6.12756 59.6182 6.1386 59.7076 6.12986C59.8716 6.13322 60.0317 6.07971 60.1607 5.97842V6.79147ZM64.401 6.84112H63.3993V6.12861H63.3819C63.2521 6.38194 63.0532 6.59334 62.8083 6.73833C62.5633 6.88331 62.2823 6.95597 61.9978 6.94787C61.551 6.94787 61.1997 6.82374 60.9465 6.58293C60.8189 6.45761 60.719 6.30689 60.6534 6.14053C60.5877 5.97417 60.5577 5.79588 60.5654 5.6172C60.5654 4.75739 61.0619 4.25632 62.0549 4.11399L63.4079 3.92283C63.4079 3.27322 63.0993 2.94841 62.4819 2.94841C61.9406 2.94778 61.4181 3.14715 61.0147 3.50823V2.6145C61.52 2.32351 62.0951 2.17588 62.6781 2.18749C63.8292 2.18749 64.4047 2.75394 64.4047 3.88683L64.401 6.84112ZM63.4079 4.60678L62.4497 4.74208C62.213 4.76072 61.9839 4.83424 61.7806 4.95683C61.63 5.06193 61.5551 5.24688 61.5559 5.51169C61.5535 5.60092 61.5708 5.68959 61.6067 5.77135C61.6425 5.85311 61.696 5.92594 61.7632 5.98462C61.9179 6.11385 62.1156 6.17991 62.3168 6.16958C62.4624 6.17351 62.6072 6.14631 62.7414 6.0898C62.8756 6.03328 62.9962 5.94876 63.0951 5.84187C63.3035 5.61505 63.4144 5.31553 63.4042 5.00772L63.4079 4.60678ZM67.8183 3.27239C67.6606 3.16477 67.4713 3.11319 67.2808 3.12592C67.129 3.12656 66.9797 3.16462 66.8461 3.23672C66.7125 3.30882 66.5988 3.41273 66.5149 3.53927C66.3113 3.81484 66.2083 4.18971 66.2083 4.66513V6.84484H65.1768V2.28928H66.2083V3.23515H66.2257C66.3085 2.94839 66.4697 2.69044 66.6912 2.49037C66.8835 2.31781 67.1328 2.22233 67.3913 2.22225C67.5385 2.21332 67.6855 2.24238 67.8183 2.30666V3.27239ZM71.027 6.79519C70.7769 6.90584 70.5047 6.95765 70.2314 6.94663C69.3475 6.94663 68.9056 6.52252 68.9056 5.6743V3.09985H68.1447V2.29052H68.9044V1.23666L69.9372 0.942474V2.29052H71.0258V3.09985H69.9347V5.37763C69.9347 5.64699 69.9831 5.84063 70.0812 5.95607C70.1449 6.01925 70.2217 6.06759 70.3063 6.09763C70.3908 6.12767 70.4809 6.13867 70.5702 6.12986C70.7342 6.13343 70.8944 6.0799 71.0233 5.97842L71.027 6.79519ZM75.7439 6.84484H74.7124V6.12365H74.6938C74.5668 6.38413 74.3666 6.60189 74.1176 6.75028C73.8687 6.89866 73.5819 6.97121 73.2924 6.95904C72.2166 6.95904 71.6787 6.31233 71.6787 5.01889V2.29052H72.7115V4.90594C72.7115 5.72519 73.0272 6.13441 73.6586 6.13358C73.8014 6.13711 73.9432 6.10862 74.0736 6.0502C74.204 5.99177 74.3196 5.9049 74.412 5.79595C74.6174 5.54803 74.7232 5.23253 74.7087 4.9109V2.29052H75.7402L75.7439 6.84484ZM77.6059 6.1733H77.5873V8.94512H76.5508V2.29052H77.5823V3.09116H77.6009C77.9535 2.48623 78.4694 2.18377 79.1488 2.18377C79.7281 2.18377 80.1787 2.38693 80.5006 2.79325C80.8225 3.19957 80.9843 3.74532 80.986 4.43052C80.986 5.18937 80.8035 5.79719 80.4385 6.25399C80.2617 6.47738 80.0346 6.65587 79.7758 6.77494C79.517 6.89401 79.2337 6.95028 78.949 6.93918C78.6758 6.94769 78.4055 6.88086 78.1677 6.74599C77.9299 6.61112 77.7338 6.41342 77.6009 6.17454L77.6059 6.1733ZM77.5786 4.3759V4.94069C77.5717 5.25287 77.6856 5.55566 77.8964 5.78602C78.0084 5.9045 78.145 5.99702 78.2966 6.0571C78.4481 6.11717 78.611 6.14333 78.7738 6.13375C78.9366 6.12417 79.0953 6.07908 79.2388 6.00163C79.3822 5.92419 79.507 5.81628 79.6044 5.68547C79.8229 5.38756 79.9321 4.97173 79.9321 4.43797C79.9321 3.98986 79.8303 3.63981 79.6267 3.38535C79.529 3.26155 79.4034 3.16261 79.2602 3.0966C79.1169 3.03059 78.9601 2.99937 78.8025 3.00551C78.6347 2.9998 78.4678 3.03199 78.3141 3.09968C78.1604 3.16738 78.024 3.26884 77.915 3.39652C77.6839 3.66998 77.5623 4.01932 77.5736 4.37714L77.5786 4.3759ZM81.4912 6.70209V5.74629C81.8556 6.03186 82.3055 6.18663 82.7685 6.18571C83.3891 6.18571 83.7019 6.002 83.7019 5.63458C83.7052 5.54012 83.6772 5.44721 83.6225 5.37018C83.5639 5.2921 83.4905 5.22631 83.4065 5.17654C83.3054 5.11486 83.198 5.0641 83.0862 5.0251C82.9621 4.98041 82.8256 4.93076 82.6754 4.87366C82.5021 4.80585 82.3334 4.72707 82.1702 4.63782C82.0324 4.56333 81.9069 4.46832 81.7978 4.35604C81.6998 4.25256 81.6234 4.13061 81.5731 3.99731C81.5196 3.84764 81.494 3.68947 81.4974 3.53058C81.4935 3.3262 81.5472 3.12486 81.6525 2.94965C81.7591 2.77979 81.9019 2.63565 82.0708 2.52761C82.2542 2.40997 82.4554 2.32278 82.6667 2.26942C82.892 2.21101 83.124 2.18181 83.3568 2.18253C83.7419 2.17608 84.1249 2.24089 84.4864 2.37369V3.27735C84.1615 3.05593 83.776 2.94059 83.3829 2.94717C83.2641 2.94576 83.1457 2.95953 83.0304 2.98813C82.9351 3.00996 82.8441 3.04729 82.761 3.09861C82.6906 3.14152 82.6311 3.20015 82.5872 3.26991C82.5462 3.33625 82.5246 3.41283 82.5252 3.49086C82.5228 3.57773 82.5442 3.66359 82.5872 3.73912C82.6336 3.813 82.6971 3.87471 82.7722 3.9191C82.8646 3.9767 82.9628 4.02454 83.0651 4.06185C83.1793 4.1053 83.3134 4.15123 83.4586 4.20212C83.6388 4.27542 83.8149 4.35829 83.9862 4.45038C84.1313 4.52598 84.2654 4.62121 84.3846 4.7334C84.491 4.83719 84.5754 4.96129 84.6329 5.09834C84.6966 5.25591 84.727 5.42496 84.7223 5.59486C84.7271 5.80745 84.6716 6.01706 84.5621 6.19937C84.4539 6.37216 84.3079 6.51816 84.1351 6.62638C83.9437 6.74347 83.7339 6.8274 83.5145 6.87463C83.2731 6.93069 83.0261 6.9586 82.7784 6.9578C82.3344 6.96641 81.8938 6.87963 81.4862 6.70333L81.4912 6.70209Z" fill="#CAC6D6"/>
</svg>
