<svg width="90" height="30" viewBox="0 0 90 30" fill="none" xmlns="http://www.w3.org/2000/svg">
<path fill-rule="evenodd" clip-rule="evenodd" d="M0 24.689L3.80098 28.4979L16.1057 28.5009C27.7603 28.5036 28.4104 28.4947 28.4111 28.3329L28.4089 3.8617L24.5606 0L0 0.0485893V24.689ZM24.853 24.5503L24.122 24.6732C22.3944 24.9636 19.4444 24.9771 18.2743 24.7C17.3837 24.4891 16.6032 24.0825 16.1612 23.5993C15.9371 23.3543 15.7382 23.1695 15.7191 23.1885C15.7001 23.2076 15.6781 23.1484 15.6703 23.057C15.6624 22.9656 15.5438 22.5678 15.4066 22.1731C15.0043 21.015 14.9494 19.8508 14.9807 13.1292L15.0093 6.97933H18.2255L18.323 9.57647L24.5606 9.61499L24.615 12.2018H18.2668L18.2949 16.6678C18.3186 20.4389 18.3457 21.1687 18.4692 21.3585C18.731 21.7612 19.4891 22.1487 20.2479 22.2678C21.0766 22.3979 22.7752 22.3244 23.8937 22.11C24.3141 22.0294 24.7142 21.9635 24.7827 21.9635C24.8791 21.9635 24.9012 22.2574 24.8802 23.2569L24.853 24.5503ZM12.2316 9.6638L12.2316 24.5991H9.01675L8.96658 12.2506L3.84978 12.1986V9.6638H12.2316ZM12.2316 3.60675L12.2314 7.02814H9.01053L9.00239 5.34426L9.00313 3.63424L10.6391 3.59871L12.2316 3.60675Z" fill="#CAC6D6"/>
<path fill-rule="evenodd" clip-rule="evenodd" d="M31.1736 19.7164C31.1736 25.2306 31.2315 29.8001 31.3023 29.8711C31.3732 29.942 32.0684 30 32.8473 30H34.2635V26.82C34.2635 25.071 34.3405 23.5922 34.4347 23.5339C34.5289 23.4756 34.7186 23.5639 34.8563 23.7301C35.2883 24.2515 36.59 24.8065 37.6339 24.9144C40.5686 25.2178 43.3058 22.9095 44.1304 19.4357C44.4628 18.0352 44.426 15.0128 44.0602 13.676C43.6126 12.0403 42.6784 10.7531 41.5157 10.1699C40.5777 9.6994 40.476 9.6908 35.867 9.6908H31.1736V19.7164ZM41.0566 15.3768C41.4907 18.1734 40.6693 21.3164 39.2911 22.1317C38.6077 22.5361 37.0734 22.5481 36.2786 22.1552C35.9531 21.9943 35.3649 21.597 34.9714 21.2722L34.2562 20.6816L34.36 12.1086L36.5809 12.0573C39.9424 11.9798 40.6057 12.4718 41.0566 15.3768Z" fill="#CAC6D6"/>
<path fill-rule="evenodd" clip-rule="evenodd" d="M46.5875 23.2742C46.9787 23.7088 47.6465 24.223 48.0713 24.4168C49.0347 24.8562 51.2657 24.8942 52.408 24.4905C52.855 24.3325 53.615 23.9368 54.0969 23.611C54.5789 23.2852 54.9945 23.0445 55.0205 23.0761C55.0465 23.1077 55.172 23.334 55.2993 23.5791C55.6726 24.2971 56.6462 24.7765 57.7271 24.7743C59.4405 24.7709 59.5617 24.6865 59.5617 23.4979V22.4566H58.7134C58.0926 22.4566 57.8239 22.3658 57.7117 22.1181C57.6274 21.9319 57.5095 19.6036 57.4496 16.9441C57.3438 12.2396 57.3278 12.0855 56.8581 11.2594C55.7012 9.22438 52.0206 8.72163 47.8299 10.0261L46.816 10.3417V11.681C46.816 12.8824 46.8508 13.0055 47.154 12.8758C49.0484 12.0657 50.1314 11.7851 51.4653 11.7586C53.653 11.7152 54.282 12.2305 54.3873 14.152L54.4442 15.1891L52.3199 15.4187C49.7075 15.7011 48.284 16.2196 47.0359 17.3436C45.1413 19.0497 44.9587 21.4648 46.5875 23.2742ZM54.501 19.047C54.5675 20.828 54.4138 21.0926 52.8992 21.8051C51.9071 22.2719 50.562 22.3868 49.7817 22.0714C49.1196 21.8038 48.7472 21.0967 48.7472 20.1074C48.7472 19.3602 48.8479 19.0974 49.3123 18.6322C50.0137 17.9297 51.1926 17.587 53.0297 17.5516L54.4441 17.5243L54.501 19.047Z" fill="#CAC6D6"/>
<path d="M61.4929 9.6908V24.5841H64.5828V14.8032L65.5967 13.8149C66.9171 12.5278 67.6443 12.1797 69.0947 12.1405L70.2798 12.1085V14.0427L72.6937 14.1579V9.69817L72.1626 9.54941C71.8706 9.4676 70.806 9.40469 69.797 9.40978C68.2021 9.41769 67.8362 9.48514 66.9968 9.92589C66.4657 10.2047 65.7053 10.7444 65.307 11.1252L64.5828 11.8176V9.6908H61.4929Z" fill="#CAC6D6"/>
<path d="M74.4317 4.66185V24.5842H77.5216V4.66185H74.4317Z" fill="#CAC6D6"/>
<path d="M78.6555 17.5391C79.6873 18.6698 82.469 21.7638 83.7979 23.2587L84.9567 24.5624L89.13 24.5843L88.2986 23.671C87.8414 23.1687 86.986 22.2331 86.3978 21.5918C85.8095 20.9505 84.5929 19.5989 83.6941 18.5883C82.7953 17.5776 81.9948 16.7217 81.9151 16.6863C81.727 16.6026 81.7273 16.1251 81.9154 16.0415C82.0648 15.9752 87.5637 9.75425 87.5637 9.6515C87.5638 9.61992 86.8034 9.62092 85.874 9.65372C85.0432 9.68304 84.6012 9.6926 84.2288 9.85853C83.7808 10.0582 83.4336 10.4843 82.6314 11.4438C82.4146 11.703 81.2737 13.0078 80.096 14.3432L77.9547 16.7712L78.6555 17.5391Z" fill="#CAC6D6"/>
</svg>
