<svg width="169" height="30" viewBox="0 0 169 30" fill="none" xmlns="http://www.w3.org/2000/svg">
<path d="M88.7076 19.0421H96.4785C96.7895 19.0498 97.0911 18.9355 97.319 18.7238C97.4337 18.6315 97.5245 18.5129 97.5838 18.3781C97.643 18.2433 97.669 18.0962 97.6594 17.9493C97.661 17.8024 97.6304 17.6569 97.5697 17.5231C97.5091 17.3893 97.4199 17.2704 97.3083 17.1748C97.1973 17.0705 97.0665 16.9895 96.9237 16.9364C96.781 16.8832 96.629 16.8591 96.4768 16.8654H88.7076V19.0421ZM88.7076 14.7866H95.7121C96.023 14.7945 96.3246 14.6802 96.5522 14.4683C96.6599 14.3709 96.746 14.2521 96.805 14.1194C96.8639 13.9866 96.8944 13.843 96.8944 13.6978C96.8944 13.5526 96.8639 13.409 96.805 13.2763C96.746 13.1436 96.6599 13.0247 96.5522 12.9274C96.325 12.7144 96.0234 12.599 95.7121 12.6061H88.7076V14.7866ZM96.699 10.2366C97.581 10.2166 98.4366 10.5378 99.0876 11.1333C99.5619 11.5444 99.8865 12.1012 100.011 12.7166C100.134 13.332 100.051 13.9711 99.7727 14.5338C99.5764 14.9211 99.3009 15.2628 98.9642 15.5368C99.4923 15.7951 99.9425 16.1889 100.268 16.6782C100.59 17.1521 100.761 17.7123 100.758 18.285C100.761 18.7053 100.673 19.1212 100.5 19.5041C100.327 19.887 100.072 20.2278 99.7548 20.503C99.0927 21.1081 98.2216 21.4326 97.325 21.4082H85.6581V10.2353L96.699 10.2366Z" fill="#CAC6D6"/>
<path d="M105.276 10.2353V17.6148C105.275 17.7905 105.312 17.9643 105.384 18.1246C105.456 18.285 105.561 18.4282 105.692 18.5446C105.975 18.7911 106.338 18.9247 106.713 18.9195H112.936C113.31 18.9157 113.671 18.7801 113.955 18.5365C114.086 18.4213 114.191 18.2795 114.262 18.1205C114.334 17.9616 114.371 17.7892 114.371 17.6148V10.2353H117.421V18.1455C117.427 18.5832 117.337 19.0169 117.156 19.4158C116.976 19.8146 116.71 20.1689 116.377 20.4532C115.684 21.0883 114.772 21.4302 113.833 21.4073H105.815C104.876 21.4284 103.965 21.0867 103.272 20.4532C102.941 20.1674 102.676 19.8129 102.495 19.4144C102.315 19.0158 102.224 18.5828 102.228 18.1455V10.2353H105.276Z" fill="#CAC6D6"/>
<path d="M122.908 10.2353L127.643 14.9402L132.381 10.2353H136.882L129.17 17.3625V21.4052H126.121V17.3625L118.406 10.2353H122.908Z" fill="#CAC6D6"/>
<path d="M151.66 10.2353V12.7223H140.912V14.5491H150.226V16.9952H140.912V18.92H151.661V21.4069H137.863V10.2353H151.66Z" fill="#CAC6D6"/>
<path d="M156.177 14.8912L163.802 14.8993C163.958 14.9073 164.114 14.884 164.261 14.8308C164.408 14.7776 164.543 14.6956 164.658 14.5895C164.768 14.4916 164.855 14.3707 164.913 14.2353C164.971 14.1 164.998 13.9536 164.993 13.8065C165.001 13.659 164.975 13.5116 164.917 13.3758C164.859 13.2399 164.771 13.1194 164.658 13.0235C164.546 12.9135 164.412 12.8294 164.264 12.7773C164.116 12.7251 163.958 12.7062 163.802 12.7218H156.177V14.8912ZM164.095 10.2353C165.119 10.2133 166.112 10.587 166.868 11.2788C167.231 11.5898 167.523 11.9764 167.721 12.4116C167.919 12.8468 168.02 13.3201 168.017 13.7984C168.02 14.2394 167.934 14.6766 167.763 15.0831C167.592 15.4897 167.34 15.8572 167.023 16.1632C166.352 16.8185 165.477 17.224 164.544 17.3122L168.181 21.406H164.633L161.274 17.3531H156.177V21.406H153.128V10.2353H164.095Z" fill="#CAC6D6"/>
<path d="M25.8037 7.39776L12.8171 14.8955L0.00425552 7.49777L0 7.49989V22.4997L2.82352 24.13V12.7231L12.9903 18.5927L23.1576 12.7231V24.13L25.9807 22.4997V7.49989L25.8037 7.39776ZM12.9903 3.26014L20.157 7.39776L22.9806 5.76748L12.9903 0L2.82735 5.86748L5.65088 7.49777L12.9903 3.26014ZM12.9903 26.7399L20.3341 22.4997V25.7602L12.9903 30L5.64747 25.7602V22.4997L12.9903 26.7399Z" fill="#CAC6D6"/>
<path d="M57.0684 10.2353V21.4069H54.0184V14.3287L49.468 20.4043H46.8513L42.2979 14.3287V21.4069H39.2501V10.2353H42.4141L48.1548 18.0655L53.8955 10.2353H57.0684Z" fill="#CAC6D6"/>
<path d="M62.5478 10.2353L67.2854 14.9402L72.0227 10.2353H76.5237L68.8102 17.3625V21.4052H65.7607V17.3625L58.0463 10.2353H62.5478Z" fill="#CAC6D6"/>
</svg>
