<svg width="114" height="30" viewBox="0 0 114 30" fill="none" xmlns="http://www.w3.org/2000/svg">
<path fill-rule="evenodd" clip-rule="evenodd" d="M28.0762 6.13996C29.2077 7.99812 29.4514 10.236 28.7438 12.2788C31.0331 14.7164 31.4259 18.2949 29.7135 21.1375C28.6054 23.0097 26.7118 24.3307 24.518 24.7629C23.4673 27.8914 20.4363 30.0083 17.0194 29.9998C14.7808 30.0139 12.6444 29.0979 11.1592 27.4873C7.81824 28.1773 4.3974 26.711 2.69575 23.861C1.56425 22.0028 1.3206 19.7649 2.02816 17.7221C-0.262147 15.2845 -0.65296 11.7013 1.06136 8.85877C2.16947 6.98654 4.06311 5.66557 6.25693 5.23338C7.30755 2.10768 10.3376 -0.00736101 13.7526 0.00013915C15.9912 -0.0129861 18.1265 0.902971 19.6128 2.51363C22.9537 1.82362 26.3746 3.2899 28.0762 6.13996ZM13.2799 26.7382C14.3295 27.581 15.654 28.0414 17.0214 28.0395C20.2453 28.0329 22.8563 25.5185 22.8602 22.4172V15.443C22.8563 15.413 22.8377 15.3867 22.8095 15.3736L20.1849 13.9157V22.3375C20.1868 22.6891 19.9919 23.0144 19.6742 23.1878L13.4641 26.6379C13.4105 26.6698 13.3276 26.7138 13.2799 26.7382ZM3.76781 19.1134C3.53293 20.4081 3.77951 21.7422 4.46465 22.8803C6.0815 25.5663 9.6534 26.487 12.4495 24.9382L18.7269 21.4515C18.7513 21.4328 18.7659 21.4037 18.7639 21.3737V18.458L11.1825 22.6694C10.8668 22.8466 10.4769 22.8466 10.1621 22.6694L3.95201 19.2193C3.91359 19.198 3.86473 19.1696 3.82287 19.1452C3.80208 19.1332 3.78301 19.1221 3.76781 19.1134ZM5.87197 7.37561C4.5894 7.82843 3.51247 8.70032 2.83025 9.84035C1.22216 12.5292 2.17824 15.9642 4.96851 17.5186L11.2469 21.0081C11.2761 21.0203 11.3092 21.0175 11.3356 21.0006L13.9601 19.5427L6.37876 15.3323C6.06201 15.1589 5.86709 14.8336 5.86904 14.4829V7.58186C5.86904 7.5483 5.86985 7.5072 5.87062 7.46827C5.87131 7.43327 5.87197 7.40002 5.87197 7.37561ZM16.8128 10.4563L24.3942 14.6676C24.7099 14.842 24.9049 15.1664 24.9019 15.517V22.6244C26.1835 22.1706 27.2595 21.2987 27.9427 20.1606C29.5576 17.4718 28.5996 14.032 25.8044 12.4785L19.5261 8.99189C19.4968 8.97971 19.4637 8.98252 19.4374 8.99939L16.8128 10.4563ZM27.0043 10.8846C26.9582 10.8573 26.8787 10.8112 26.8219 10.7797L20.6118 7.32967C20.297 7.15248 19.9071 7.15248 19.5914 7.32967L12.01 11.541V8.62532C12.008 8.59532 12.0226 8.56626 12.047 8.54751L18.3244 5.06368C21.1205 3.51209 24.6953 4.43555 26.3073 7.12623C26.9884 8.2622 27.235 9.59212 27.0043 10.8846ZM7.9576 14.6245L10.5832 16.0824L10.5871 7.66249C10.5851 7.31092 10.78 6.98654 11.0978 6.8131L17.3079 3.36302C17.3625 3.33115 17.4443 3.28708 17.4921 3.26271C16.4424 2.42269 15.1209 1.96143 13.7555 1.96143C10.5276 1.95956 7.90887 4.47586 7.90692 7.58093V14.5551C7.91082 14.5851 7.92934 14.6114 7.9576 14.6245ZM15.386 11.2494L12.009 13.1254V16.8755L15.386 18.7505L18.763 16.8755V13.1245L15.386 11.2494Z" fill="#CAC6D6"/>
<path fill-rule="evenodd" clip-rule="evenodd" d="M35.603 14.4227C35.603 19.3278 38.8777 22.7479 43.4154 22.7479C47.9531 22.7479 51.2278 19.3278 51.2278 14.4227C51.2278 9.51759 47.9531 6.09752 43.4154 6.09752C38.8777 6.09752 35.603 9.51759 35.603 14.4227ZM48.2338 14.4227C48.2338 17.9328 46.2456 20.2053 43.4154 20.2053C40.5852 20.2053 38.597 17.9328 38.597 14.4227C38.597 10.9126 40.5852 8.64007 43.4154 8.64007C46.2456 8.64007 48.2338 10.9126 48.2338 14.4227Z" fill="#CAC6D6"/>
<path fill-rule="evenodd" clip-rule="evenodd" d="M59.659 22.7482C63.0973 22.7482 65.0621 19.9581 65.0621 16.6055C65.0621 13.253 63.0973 10.4629 59.659 10.4629C58.0684 10.4629 56.8989 11.0704 56.127 11.9479V10.6879H53.3202V26.5507H56.127V21.2631C56.8989 22.1406 58.0684 22.7482 59.659 22.7482ZM56.0569 16.268C56.0569 14.0405 57.3667 12.8254 59.0976 12.8254C61.1326 12.8254 62.2319 14.3555 62.2319 16.6055C62.2319 18.8556 61.1326 20.3856 59.0976 20.3856C57.3667 20.3856 56.0569 19.1481 56.0569 16.9655V16.268Z" fill="#CAC6D6"/>
<path fill-rule="evenodd" clip-rule="evenodd" d="M77.921 19.4406C77.0556 21.5106 75.1142 22.7482 72.6582 22.7482C69.1496 22.7482 66.6936 20.2506 66.6936 16.6055C66.6936 13.1405 68.9859 10.4629 72.5412 10.4629C76.0966 10.4629 77.9912 13.0505 77.9912 16.2905V17.1905H69.3835C69.594 19.2156 70.8571 20.4531 72.6582 20.4531C74.0382 20.4531 75.1376 19.7781 75.5118 18.5631L77.921 19.4406ZM75.1609 15.1655C75.1376 13.8605 74.2955 12.7354 72.5178 12.7354C71.0676 12.7354 69.9449 13.568 69.5239 15.1655H75.1609Z" fill="#CAC6D6"/>
<path d="M80.0974 22.5007H82.9042V15.5705C82.9042 13.883 84.1907 12.983 85.4538 12.983C86.9975 12.983 87.6057 14.0405 87.6057 15.503V22.5007H90.4125V14.7155C90.4125 12.1729 88.8688 10.4629 86.2958 10.4629C84.7053 10.4629 83.6059 11.1604 82.9042 11.9479V10.6879H80.0974V22.5007Z" fill="#CAC6D6"/>
<path fill-rule="evenodd" clip-rule="evenodd" d="M92.271 22.5007L98.6331 6.34531H102.025L108.387 22.5007H105.37L103.919 18.8106H96.6684L95.2415 22.5007H92.271ZM102.937 16.2905L100.27 9.54038L97.6507 16.2905H102.937Z" fill="#CAC6D6"/>
<path d="M113.205 6.39201H110.211V22.5473H113.205V6.39201Z" fill="#CAC6D6"/>
</svg>
