<svg width="183" height="30" viewBox="0 0 183 30" fill="none" xmlns="http://www.w3.org/2000/svg">
<path d="M31.7548 24.5368V9.97758H34.6389V14.5533L34.3616 13.4441C34.565 12.7415 34.907 12.1037 35.3877 11.5306C35.8869 10.9574 36.4507 10.5045 37.0793 10.1717C37.7264 9.83893 38.392 9.67254 39.076 9.67254C39.3903 9.67254 39.6861 9.70027 39.9635 9.75573C40.2593 9.81119 40.4904 9.8759 40.6567 9.94985L39.908 13.0558C39.6861 12.9634 39.4366 12.8894 39.1592 12.834C38.9004 12.76 38.6416 12.723 38.3827 12.723C37.8836 12.723 37.4029 12.8247 36.9407 13.0281C36.497 13.213 36.0995 13.481 35.7482 13.8323C35.4154 14.1651 35.1474 14.5626 34.944 15.0248C34.7406 15.4685 34.6389 15.9584 34.6389 16.4946V24.5368H31.7548Z" fill="#CAC6D6"/>
<path d="M48.8615 24.8141C47.4379 24.8141 46.1623 24.4906 45.0345 23.8435C43.9252 23.178 43.047 22.2813 42.4 21.1535C41.7529 20.0073 41.4293 18.7039 41.4293 17.2433C41.4293 15.7828 41.7529 14.4886 42.4 13.3609C43.047 12.2146 43.9252 11.318 45.0345 10.6709C46.1623 10.0053 47.4379 9.67254 48.8615 9.67254C50.2666 9.67254 51.5237 10.0053 52.633 10.6709C53.7608 11.318 54.6482 12.2146 55.2953 13.3609C55.9424 14.4886 56.2659 15.7828 56.2659 17.2433C56.2659 18.7039 55.9424 20.0073 55.2953 21.1535C54.6482 22.2813 53.7608 23.178 52.633 23.8435C51.5237 24.4906 50.2666 24.8141 48.8615 24.8141ZM48.8615 22.2073C49.7304 22.2073 50.5069 21.9947 51.191 21.5695C51.875 21.1258 52.4112 20.5342 52.7994 19.7947C53.1877 19.0367 53.3725 18.1862 53.3541 17.2433C53.3725 16.282 53.1877 15.4315 52.7994 14.692C52.4112 13.934 51.875 13.3424 51.191 12.9172C50.5069 12.4919 49.7304 12.2793 48.8615 12.2793C47.9926 12.2793 47.2068 12.5012 46.5043 12.9449C45.8202 13.3701 45.2841 13.9617 44.8958 14.7197C44.5076 15.4593 44.3227 16.3005 44.3412 17.2433C44.3227 18.1862 44.5076 19.0367 44.8958 19.7947C45.2841 20.5342 45.8202 21.1258 46.5043 21.5695C47.2068 21.9947 47.9926 22.2073 48.8615 22.2073Z" fill="#CAC6D6"/>
<path d="M57.6313 30L56.5497 27.8092C57.2707 27.8092 57.8624 27.6798 58.3246 27.4209C58.8052 27.1806 59.1657 26.8108 59.4061 26.3117C59.6464 25.831 59.7666 25.2301 59.7666 24.5091V9.97758H62.623V25.2024C62.623 26.1453 62.4104 26.9772 61.9852 27.6983C61.5784 28.4193 60.9961 28.9832 60.238 29.3899C59.4985 29.7966 58.6296 30 57.6313 30ZM61.2641 6.76069C60.654 6.76069 60.1826 6.60354 59.8498 6.28925C59.517 5.97495 59.3506 5.53124 59.3506 4.95812C59.3506 4.42197 59.517 3.9875 59.8498 3.65472C60.2011 3.32194 60.6725 3.15554 61.2641 3.15554C61.8742 3.15554 62.3457 3.31269 62.6785 3.62699C63.0112 3.94128 63.1776 4.38499 63.1776 4.95812C63.1776 5.49427 63.002 5.92873 62.6507 6.26151C62.3179 6.5943 61.8557 6.76069 61.2641 6.76069Z" fill="#CAC6D6"/>
<path d="M73.5119 24.8141C72.0144 24.8141 70.6832 24.4998 69.5185 23.8713C68.3722 23.2242 67.4663 22.346 66.8008 21.2367C66.1537 20.1275 65.8301 18.8518 65.8301 17.4097C65.8301 16.2635 66.015 15.2189 66.3848 14.276C66.7545 13.3331 67.263 12.5197 67.91 11.8356C68.5756 11.1331 69.3613 10.5969 70.2672 10.2272C71.1916 9.83893 72.19 9.6448 73.2623 9.6448C74.2052 9.6448 75.0833 9.82968 75.8968 10.1994C76.7103 10.5507 77.4128 11.0406 78.0044 11.6692C78.6145 12.2978 79.0767 13.0466 79.391 13.9155C79.7238 14.766 79.881 15.6996 79.8625 16.7164L79.8347 17.9366H67.9378L67.2999 15.6626H77.3666L76.9506 16.1341V15.4685C76.8952 14.8584 76.6918 14.313 76.3405 13.8323C75.9893 13.3516 75.5455 12.9726 75.0094 12.6953C74.4732 12.418 73.8909 12.2793 73.2623 12.2793C72.2639 12.2793 71.4227 12.4735 70.7387 12.8617C70.0546 13.2315 69.537 13.7861 69.1857 14.5256C68.8344 15.2466 68.6588 16.1433 68.6588 17.2156C68.6588 18.2324 68.8714 19.1199 69.2966 19.8779C69.7218 20.6174 70.3227 21.1905 71.0992 21.5972C71.8757 22.004 72.7724 22.2073 73.7892 22.2073C74.5102 22.2073 75.1758 22.0872 75.7859 21.8468C76.4145 21.6065 77.0893 21.172 77.8103 20.5434L79.2524 22.5679C78.8087 23.0116 78.2633 23.3998 77.6162 23.7326C76.9876 24.0654 76.3128 24.3335 75.5918 24.5368C74.8892 24.7217 74.1959 24.8141 73.5119 24.8141Z" fill="#CAC6D6"/>
<path d="M89.1509 24.8141C87.8013 24.8141 86.5903 24.4814 85.518 23.8158C84.4642 23.1502 83.623 22.2443 82.9944 21.0981C82.3843 19.9518 82.0793 18.6669 82.0793 17.2433C82.0793 15.8198 82.3843 14.5349 82.9944 13.3886C83.623 12.2424 84.4642 11.3364 85.518 10.6709C86.5903 10.0053 87.8013 9.67254 89.1509 9.67254C90.4451 9.67254 91.619 9.94061 92.6729 10.4768C93.7452 10.9944 94.5586 11.7062 95.1133 12.6121L93.5326 14.5533C93.2367 14.1281 92.8577 13.7399 92.3955 13.3886C91.9333 13.0373 91.4434 12.76 90.9258 12.5567C90.4081 12.3533 89.9089 12.2516 89.4282 12.2516C88.5408 12.2516 87.7458 12.4735 87.0433 12.9172C86.3592 13.3424 85.8138 13.934 85.4071 14.692C85.0004 15.45 84.797 16.3005 84.797 17.2433C84.797 18.1862 85.0096 19.0367 85.4348 19.7947C85.8601 20.5342 86.424 21.1258 87.1265 21.5695C87.829 22.0132 88.6055 22.2351 89.456 22.2351C89.9551 22.2351 90.4358 22.1519 90.898 21.9855C91.3787 21.8191 91.8409 21.5695 92.2846 21.2367C92.7283 20.9039 93.1443 20.4972 93.5326 20.0165L95.1133 21.9578C94.5217 22.7897 93.6712 23.4738 92.5619 24.0099C91.4712 24.5461 90.3341 24.8141 89.1509 24.8141Z" fill="#CAC6D6"/>
<path d="M99.6102 24.5368V6.26151H102.467V24.5368H99.6102ZM96.5874 12.7508V9.97758H105.85V12.7508H96.5874Z" fill="#CAC6D6"/>
<path d="M114.86 24.8141C113.437 24.8141 112.161 24.4906 111.033 23.8435C109.924 23.178 109.046 22.2813 108.399 21.1535C107.751 20.0073 107.428 18.7039 107.428 17.2433C107.428 15.7828 107.751 14.4886 108.399 13.3609C109.046 12.2146 109.924 11.318 111.033 10.6709C112.161 10.0053 113.437 9.67254 114.86 9.67254C116.265 9.67254 117.522 10.0053 118.632 10.6709C119.759 11.318 120.647 12.2146 121.294 13.3609C121.941 14.4886 122.265 15.7828 122.265 17.2433C122.265 18.7039 121.941 20.0073 121.294 21.1535C120.647 22.2813 119.759 23.178 118.632 23.8435C117.522 24.4906 116.265 24.8141 114.86 24.8141ZM114.86 22.2073C115.729 22.2073 116.506 21.9947 117.19 21.5695C117.874 21.1258 118.41 20.5342 118.798 19.7947C119.186 19.0367 119.371 18.1862 119.353 17.2433C119.371 16.282 119.186 15.4315 118.798 14.692C118.41 13.934 117.874 13.3424 117.19 12.9172C116.506 12.4919 115.729 12.2793 114.86 12.2793C113.991 12.2793 113.205 12.5012 112.503 12.9449C111.819 13.3701 111.283 13.9617 110.894 14.7197C110.506 15.4593 110.321 16.3005 110.34 17.2433C110.321 18.1862 110.506 19.0367 110.894 19.7947C111.283 20.5342 111.819 21.1258 112.503 21.5695C113.205 21.9947 113.991 22.2073 114.86 22.2073Z" fill="#CAC6D6"/>
<path d="M125.377 24.5368V9.97758H128.261V14.5533L127.984 13.4441C128.187 12.7415 128.529 12.1037 129.01 11.5306C129.509 10.9574 130.073 10.5045 130.701 10.1717C131.349 9.83893 132.014 9.67254 132.698 9.67254C133.012 9.67254 133.308 9.70027 133.586 9.75573C133.881 9.81119 134.113 9.8759 134.279 9.94985L133.53 13.0558C133.308 12.9634 133.059 12.8894 132.781 12.834C132.523 12.76 132.264 12.723 132.005 12.723C131.506 12.723 131.025 12.8247 130.563 13.0281C130.119 13.213 129.722 13.481 129.37 13.8323C129.038 14.1651 128.77 14.5626 128.566 15.0248C128.363 15.4685 128.261 15.9584 128.261 16.4946V24.5368H125.377Z" fill="#CAC6D6"/>
<path d="M137.033 24.5368V9.97758H139.89V24.5368H137.033ZM138.42 6.76069C137.81 6.76069 137.338 6.60354 137.006 6.28925C136.673 5.97495 136.506 5.53124 136.506 4.95812C136.506 4.42197 136.673 3.9875 137.006 3.65472C137.357 3.32194 137.828 3.15554 138.42 3.15554C139.03 3.15554 139.501 3.31269 139.834 3.62699C140.167 3.94128 140.333 4.38499 140.333 4.95812C140.333 5.49427 140.158 5.92873 139.806 6.26151C139.474 6.5943 139.011 6.76069 138.42 6.76069Z" fill="#CAC6D6"/>
<path d="M149.383 24.8141C148.347 24.8141 147.442 24.5738 146.665 24.0931C145.907 23.6124 145.315 22.9376 144.89 22.0687C144.484 21.1998 144.28 20.1644 144.28 18.9627V9.97758H147.137V18.1862C147.137 19.0367 147.266 19.7762 147.525 20.4048C147.802 21.0149 148.19 21.4863 148.69 21.8191C149.207 22.1519 149.827 22.3183 150.548 22.3183C151.084 22.3183 151.574 22.2351 152.017 22.0687C152.461 21.8838 152.84 21.6342 153.154 21.3199C153.487 21.0056 153.746 20.6266 153.931 20.1829C154.116 19.7392 154.208 19.2585 154.208 18.7409V9.97758H157.065V24.5368H154.208V21.4863L154.707 21.1535C154.485 21.8376 154.106 22.4569 153.57 23.0116C153.053 23.5662 152.433 24.0099 151.712 24.3427C150.991 24.657 150.215 24.8141 149.383 24.8141Z" fill="#CAC6D6"/>
<path d="M161.015 24.5368V9.97758H163.9V13.0836L163.373 13.4163C163.521 12.9357 163.752 12.4735 164.066 12.0297C164.399 11.586 164.796 11.1978 165.258 10.865C165.739 10.5137 166.248 10.2364 166.784 10.033C167.338 9.82968 167.902 9.728 168.475 9.728C169.307 9.728 170.038 9.86666 170.666 10.144C171.295 10.4213 171.812 10.8373 172.219 11.3919C172.626 11.9465 172.922 12.6398 173.107 13.4718L172.663 13.3609L172.857 12.8894C173.06 12.4642 173.338 12.0667 173.689 11.697C174.059 11.3087 174.475 10.9667 174.937 10.6709C175.399 10.3751 175.889 10.144 176.407 9.97758C176.924 9.81119 177.433 9.728 177.932 9.728C179.023 9.728 179.919 9.94985 180.622 10.3936C181.343 10.8373 181.879 11.5121 182.23 12.418C182.6 13.3239 182.785 14.4517 182.785 15.8013V24.5368H179.901V15.9677C179.901 15.1357 179.79 14.4609 179.568 13.9432C179.365 13.4071 179.05 13.0096 178.625 12.7508C178.2 12.4919 177.655 12.3625 176.989 12.3625C176.471 12.3625 175.981 12.455 175.519 12.6398C175.076 12.8062 174.687 13.0466 174.354 13.3609C174.022 13.6752 173.763 14.0449 173.578 14.4701C173.393 14.8769 173.301 15.3298 173.301 15.829V24.5368H170.417V15.9122C170.417 15.1542 170.306 14.5164 170.084 13.9987C169.862 13.4626 169.538 13.0558 169.113 12.7785C168.688 12.5012 168.17 12.3625 167.56 12.3625C167.043 12.3625 166.562 12.455 166.118 12.6398C165.674 12.8062 165.286 13.0466 164.953 13.3609C164.621 13.6567 164.362 14.0172 164.177 14.4424C163.992 14.8492 163.9 15.2929 163.9 15.7735V24.5368H161.015Z" fill="#CAC6D6"/>
<path d="M10.5208 15.4048V22.2177L10.521 21.6008C13.044 21.0141 15.3632 19.7604 17.2361 17.971V15.4048C17.2409 14.9608 17.1576 14.5203 16.991 14.1087C16.8244 13.6971 16.5779 13.3227 16.2656 13.007C15.9534 12.6914 15.5816 12.4408 15.1718 12.2697C14.7621 12.0987 14.3225 12.0107 13.8785 12.0107C13.4344 12.0107 12.9948 12.0987 12.5851 12.2697C12.1753 12.4408 11.8035 12.6914 11.4913 13.007C11.179 13.3227 10.9324 13.6971 10.7659 14.1087C10.5993 14.5203 10.516 14.9608 10.5208 15.4048Z" fill="#CAC6D6"/>
<path d="M1.0154 8.6764C1.54817 7.35506 2.28385 6.12491 3.19587 5.03035C3.29728 4.90466 3.40304 4.77858 3.51267 4.65681C3.5768 4.63536 3.64219 4.6177 3.70844 4.60396C3.7176 4.5964 3.72904 4.59213 3.74094 4.59182H3.74873C3.89908 4.54718 4.05335 4.50646 4.20762 4.46574C4.23189 4.46183 4.26048 4.4536 4.28906 4.44577C4.4351 4.40897 4.58549 4.37647 4.73546 4.34397C4.95081 4.29542 5.16616 4.2547 5.38542 4.21829C5.50288 4.19793 5.62035 4.18187 5.73781 4.16151C5.87994 4.14115 6.02599 4.1251 6.17203 4.10865C6.30633 4.09221 6.4402 4.08007 6.57411 4.0695C6.64302 4.06558 6.71232 4.05736 6.78515 4.05345C7.13441 4.02917 7.48762 4.01664 7.84236 4.01664C7.93202 4.01664 8.02129 4.01664 8.10626 4.02095C8.18457 4.02095 8.25661 4.02486 8.33375 4.02917C8.3758 4.02631 8.41801 4.02764 8.45982 4.03309C8.5166 4.03309 8.57337 4.037 8.63015 4.04131C8.7805 4.04522 8.93046 4.05736 9.08081 4.0695C9.14189 4.07381 9.20258 4.07772 9.26366 4.08594C9.45434 4.102 9.64111 4.12236 9.83218 4.15094C9.94965 4.16699 10.0714 4.18344 10.1893 4.20341C10.2115 4.2036 10.2336 4.20783 10.2543 4.21594C10.3435 4.22807 10.4371 4.24413 10.5283 4.26057C10.8733 4.32126 11.2186 4.3984 11.5554 4.48767C11.6572 4.51233 11.7586 4.54053 11.8561 4.56911C12.4032 4.72326 12.9413 4.9076 13.468 5.12119C13.618 5.18227 13.7644 5.24726 13.9105 5.31696C14.2354 5.45909 14.5522 5.61727 14.8647 5.78681C14.9946 5.85181 15.1204 5.92463 15.2465 5.99785C15.6078 6.20498 15.961 6.42855 16.3036 6.66778C16.4743 6.78955 16.6447 6.91132 16.8126 7.0374C16.9712 7.15917 17.1293 7.28486 17.2824 7.41093L17.2989 7.42699C17.3436 7.45949 17.3839 7.49629 17.4285 7.5327C17.5851 7.6627 17.7375 7.80052 17.8874 7.93873C16.706 7.13791 15.3111 6.71062 13.8838 6.71242C10.8631 6.00764 6.46996 5.92463 1.24441 8.56795C1.16571 8.59927 1.08744 8.63608 1.0154 8.6764Z" fill="#CAC6D6"/>
<path d="M13.8784 27.7593H10.5209L10.5208 22.2177C10.6774 22.2055 10.8415 22.1885 10.9997 22.1685C11.2636 22.1438 11.5275 22.1074 11.7875 22.0628C11.9336 22.0424 12.0757 22.0181 12.2182 21.9895C12.265 21.9794 12.3117 21.9703 12.3584 21.9612C12.4051 21.9521 12.4518 21.943 12.4986 21.9328C12.6732 21.9003 12.8478 21.8596 13.0221 21.8153C13.5846 21.6818 14.1392 21.5164 14.683 21.32C14.8858 21.2472 15.0887 21.17 15.2918 21.0886C15.4027 21.0435 15.5135 20.9956 15.6253 20.9473L15.6834 20.9222C16.2155 20.691 16.7346 20.4307 17.2382 20.1426V20.2076C17.7126 19.9543 18.1568 19.6478 18.562 19.2942L18.5741 19.2859C18.9355 19.0303 19.2848 18.7581 19.6258 18.4739C19.9586 18.1935 20.2797 17.9014 20.5882 17.5929C20.7449 17.4386 20.9015 17.2797 21.0467 17.1176L21.0671 17.0976C21.2135 16.941 21.3514 16.7887 21.4853 16.6277C21.7778 16.2945 22.0499 15.9535 22.3075 15.5964C22.4457 15.4097 22.5757 15.2186 22.7053 15.0236C22.8071 14.8736 22.9011 14.7272 22.9939 14.5729L22.9979 14.5669L23.0017 14.5608C23.0954 14.4146 23.1848 14.2644 23.2699 14.1101C23.4931 13.7162 23.7041 13.3102 23.8964 12.8963L23.9048 12.8781C23.9831 12.7096 24.0614 12.5409 24.1313 12.3681C24.2817 12.0111 24.4199 11.6497 24.5417 11.2843C24.5863 11.1544 24.6266 11.0244 24.6673 10.8928C24.7488 10.6332 24.824 10.3693 24.8905 10.105C24.9152 10.0118 24.9395 9.91434 24.9598 9.82115C25.0045 9.64652 25.0409 9.47581 25.0773 9.30118C25.1141 9.1105 25.1505 8.91942 25.1791 8.72874C25.2155 8.5177 25.248 8.30235 25.2723 8.09131C25.2911 7.95292 25.3043 7.81735 25.3174 7.68169L25.3291 7.56351C25.3373 7.49029 25.3416 7.42138 25.3455 7.34816C25.3517 7.30928 25.3557 7.27004 25.3576 7.23069C25.3651 7.14268 25.369 7.05403 25.3728 6.96647L25.3741 6.93821C25.3903 6.67431 25.3984 6.40638 25.3984 6.13437C26.4547 7.70133 27.1794 9.46778 27.5278 11.3251C27.8761 13.1825 27.8409 15.0915 27.4242 16.9347L27.4203 16.9488L27.4164 16.9629C26.842 19.4632 25.5877 21.7561 23.792 23.5883C21.9964 25.4204 19.7292 26.7206 17.2409 27.3451C16.1416 27.6223 15.0121 27.7614 13.8784 27.7593Z" fill="#CAC6D6"/>
<path d="M0 27.4188V21.1376L0.003916 21.1333L0.0183356 21.1268C0.0392116 21.1132 0.0600996 21.0997 0.0809685 21.0863L0.0983436 21.075C0.173575 21.0267 0.24845 20.9785 0.321499 20.9262C0.569346 20.7696 0.808971 20.6016 1.04429 20.4309C1.63442 20.001 2.1959 19.5332 2.72515 19.0303C2.82656 18.9367 2.9284 18.8393 3.02981 18.7418L3.05535 18.714" fill="#CAC6D6"/>
<path d="M4.60986 16.9518C4.57148 17.0022 4.53254 17.0532 4.4915 17.1024C4.48005 17.1169 4.4686 17.1315 4.45717 17.1461C4.39549 17.2247 4.334 17.3031 4.27224 17.3784C4.17854 17.4925 4.0819 17.6062 3.98718 17.7178C3.96711 17.7414 3.94713 17.7649 3.92729 17.7883C3.8987 17.8198 3.87012 17.8514 3.84151 17.8831C3.72783 18.0087 3.61362 18.135 3.49663 18.2582C3.36272 18.405 3.22486 18.5472 3.07842 18.6889L3.05535 18.714" fill="#CAC6D6"/>
<path d="M6.26932 14.3385C6.2008 14.4849 6.11787 14.6337 6.03291 14.7797C6.00041 14.8408 5.96791 14.9015 5.93111 14.9583C5.85006 15.1129 5.76082 15.2629 5.66333 15.4132C5.56192 15.5836 5.45616 15.7504 5.34653 15.9168C5.3349 15.9366 5.32183 15.9556 5.30742 15.9735C5.21031 16.1278 5.10456 16.2782 4.99884 16.4242C4.97457 16.4594 4.94637 16.4986 4.91779 16.5378C4.83674 16.6517 4.75142 16.7652 4.66607 16.8788L4.65725 16.8903" fill="#CAC6D6"/>
<path d="M6.26932 14.3385L6.27865 14.3216L6.26932 14.3385Z" fill="#CAC6D6"/>
<path d="M6.55722 13.7621L6.5521 13.777C6.47105 13.9516 6.38569 14.1262 6.29211 14.2966L6.27865 14.3216" fill="#CAC6D6"/>
<path d="M6.71071 15.6766V20.7038C6.71036 21.1607 6.66404 21.6164 6.57246 22.064C6.26075 23.5767 5.43663 24.9356 4.23925 25.9111C3.04183 26.8867 1.54448 27.4192 0 27.4188" fill="#CAC6D6"/>
<path d="M6.71071 15.6766L6.71081 13.8792C6.71081 13.721 6.71473 13.5609 6.72686 13.4042C6.67401 13.5217 6.62101 13.6392 6.56032 13.7566" fill="#CAC6D6"/>
<path fill-rule="evenodd" clip-rule="evenodd" d="M22.3075 15.5964C24.3098 12.8479 25.3922 9.53489 25.3984 6.13437C24.6013 4.95696 23.6261 3.90742 22.5148 3.02051C22.5273 6.91828 21.8938 10.0083 20.9071 12.4605C20.812 11.9975 20.672 11.5449 20.4891 11.109C19.9468 9.82335 19.0435 8.71998 17.8874 7.93873L17.8822 7.93788L17.865 7.92189C16.6884 7.13083 15.3021 6.71063 13.8838 6.71242C12.944 6.71242 12.0096 6.89619 11.1414 7.25637C10.2733 7.61655 9.48476 8.14447 8.82098 8.80986C7.59219 10.0375 6.85065 11.6693 6.73405 13.4023C6.6812 13.5197 6.62832 13.6372 6.56764 13.7547L6.56455 13.7601L6.55942 13.775L6.54546 13.8036C6.46479 13.9687 6.38421 14.1336 6.29943 14.2946L6.28597 14.3196L6.27516 14.3392C6.20826 14.4737 6.1341 14.6079 6.05995 14.7421L6.04023 14.7778C6.00789 14.8386 5.97554 14.899 5.93895 14.9555C6.1619 14.5652 6.37128 14.1684 6.56455 13.7601C6.52774 13.8087 6.44143 13.9198 6.32397 14.0902C6.16579 14.3216 5.94222 14.6383 5.66618 15.0162L5.53643 15.1904C5.43505 15.3261 5.32838 15.4688 5.21942 15.6211C5.13921 15.7332 5.05241 15.8435 4.96388 15.9559C4.87958 16.063 4.79369 16.1721 4.71042 16.2867L4.60511 16.4165C4.27432 16.8241 3.92338 17.2566 3.5491 17.6712C3.14307 18.1301 2.71668 18.5726 2.31064 18.9868C2.19851 19.0902 2.09235 19.1959 1.9881 19.2997C1.89617 19.3913 1.80566 19.4814 1.71393 19.5671C1.51816 19.7499 1.33649 19.9206 1.16577 20.0827C0.911782 20.3103 0.688024 20.5119 0.506696 20.6753L0.32121 20.8423C0.138751 21.0044 0.0285833 21.109 0.003916 21.1333L0.0117747 21.1325L0.00908653 21.1398L0 21.1376L0.000562101 13.8774C0.00122773 10.6454 1.13145 7.51712 3.19587 5.03035C3.29728 4.90466 3.40304 4.77858 3.51267 4.65681L3.51871 4.65323C5.8745 2.00245 9.15673 0.355404 12.6901 0.0511471C16.2252 -0.253259 19.7399 0.809266 22.5148 3.02051C23.6261 3.90742 24.6013 4.95696 25.3984 6.13437C25.3922 9.53489 24.3098 12.8479 22.3075 15.5964ZM3.70844 4.60396C3.69635 4.60646 3.68443 4.60748 3.6724 4.61024L3.70844 4.60396ZM10.2988 4.2206C10.2822 4.21782 10.2657 4.21506 10.2491 4.21233L10.2543 4.21594C10.269 4.21793 10.2839 4.21841 10.2988 4.2206ZM9.30813 4.08813C9.28802 4.08613 9.2679 4.08417 9.24778 4.08225L9.26366 4.08594C9.27846 4.08719 9.29338 4.08683 9.30813 4.08813ZM9.11954 4.07059C8.75865 4.03934 8.39702 4.02137 8.03538 4.01665C8.05933 4.01728 8.08288 4.01976 8.10626 4.02095C8.18457 4.02095 8.25661 4.02486 8.33375 4.02917C8.3758 4.02631 8.41801 4.02764 8.45982 4.03309C8.5166 4.03309 8.57337 4.037 8.63015 4.04131C8.7805 4.04522 8.93046 4.05736 9.08081 4.0695L9.09533 4.06888L9.11954 4.07059Z" fill="#CAC6D6"/>
<path d="M2.75563 19.0071C4.00622 17.8235 5.08087 16.457 5.93895 14.9555C5.85434 15.1113 5.76377 15.2616 5.67061 15.4113C5.5692 15.5816 5.46345 15.7484 5.35382 15.9148C5.34219 15.9347 5.32911 15.9537 5.3147 15.9716C5.2176 16.1219 5.11576 16.2719 5.00612 16.4223C4.99091 16.4451 4.97417 16.4681 4.95675 16.492L4.92511 16.5358C4.84406 16.6497 4.75871 16.7633 4.67335 16.8768L4.62374 16.9415C4.58323 16.9945 4.54203 17.0485 4.49872 17.1004C4.42981 17.1936 4.35659 17.2872 4.27946 17.3764C4.2121 17.4584 4.14321 17.5396 4.07461 17.6204L3.93447 17.7864L3.83579 17.8955C3.72637 18.0167 3.61637 18.1386 3.50381 18.2562C3.3699 18.4027 3.23208 18.5448 3.08564 18.6869L3.06266 18.712L3.03705 18.7398L3.01285 18.7631C2.92722 18.8454 2.84127 18.9281 2.75563 19.0071Z" fill="#CAC6D6"/>
<path d="M0.352063 20.9136C1.16706 20.3758 1.93279 19.7732 2.64261 19.1131C2.13975 19.5839 1.60839 20.0233 1.05157 20.4289C0.824021 20.5981 0.591658 20.7595 0.352063 20.9136Z" fill="#CAC6D6"/>
<path d="M7.84236 4.01664C6.45833 4.01464 5.07825 4.20724 3.74873 4.59182L3.73395 4.59152C3.73395 4.59152 3.94108 4.49833 4.31852 4.36403C4.8383 4.17852 5.37193 4.03451 5.91445 3.93333C6.68615 3.78268 7.47076 3.70793 8.25706 3.71016C8.70041 3.70697 9.1436 3.72723 9.58479 3.77085C10.0355 3.81979 10.4943 3.88479 10.945 3.97797C11.3957 4.07116 11.8424 4.19332 12.2763 4.33036C12.4925 4.39383 12.7052 4.46846 12.9137 4.55393C13.1208 4.63224 13.324 4.71603 13.5229 4.80569C13.903 4.96901 14.2732 5.15468 14.6314 5.36169C14.9561 5.53972 15.2706 5.73581 15.5735 5.949C15.8319 6.12422 16.0813 6.31255 16.3205 6.51322C16.5398 6.68393 16.7144 6.85425 16.8644 6.98307C17.1204 7.23483 17.2704 7.39341 17.2951 7.4216C14.6395 5.21454 11.2953 4.01081 7.84236 4.01664Z" fill="#CAC6D6"/>
</svg>
