<svg width="107" height="30" viewBox="0 0 107 30" fill="none" xmlns="http://www.w3.org/2000/svg">
<path d="M10.4122 9.95506C9.02305 9.95506 7.95684 10.9055 8.20055 11.9778C8.45376 13.0906 9.86214 13.2888 11.4124 13.5069C12.6969 13.6877 14.0788 13.8821 14.9816 14.622V11.9778H13.3793C12.904 10.2353 11.6307 9.95506 10.4122 9.95506Z" fill="#CAC6D6"/>
<path fill-rule="evenodd" clip-rule="evenodd" d="M2.1967 2.1967C3.60322 0.790176 5.51088 0 7.5 0H30V22.5C30 24.4891 29.2098 26.3968 27.8033 27.8033C26.3968 29.2098 24.4891 30 22.5 30H7.5C5.51088 30 3.60322 29.2098 2.1967 27.8033C0.790176 26.3968 0 24.4891 0 22.5V7.5C0 5.51088 0.790176 3.60322 2.1967 2.1967ZM21.19 11.2467H24.7907L20.7148 15.7248L24.7846 22.4815H21.5494L18.7408 17.8694L17.7538 18.9417V22.4449H14.9755V21.2264C13.859 22.1664 12.4379 22.6668 10.9788 22.6338C8.94994 22.6338 7.39632 22.0489 6.36058 20.8852C5.62264 20.0361 5.19324 18.9627 5.14206 17.8389H8.10307C8.10307 17.8389 8.19446 19.886 10.9666 19.886C12.0511 19.886 13.6717 19.49 13.7144 18.107C13.757 16.7239 12.2643 16.4376 10.7107 16.2365C8.74279 15.9806 6.06204 15.5176 5.41623 12.6297C5.30907 12.0163 5.33523 11.387 5.49292 10.7846C5.65062 10.1822 5.93615 9.62087 6.33012 9.13865C6.81695 8.54914 7.43425 8.08097 8.1332 7.77115C8.83215 7.46133 9.5936 7.31835 10.3573 7.35352C11.1529 7.30729 11.9494 7.42814 12.6955 7.70831C13.4415 7.98848 14.1207 8.42175 14.6892 8.98024C14.7948 9.09397 14.8923 9.20973 14.9816 9.32752V7.49974H17.7598V14.9997L21.19 11.2467Z" fill="#CAC6D6"/>
<path d="M42.5384 14.2142C42.4492 14.067 42.3494 13.9266 42.2399 13.7938C42.1079 13.6526 41.956 13.5315 41.789 13.4343C41.5985 13.3203 41.3936 13.2322 41.1798 13.1724C40.895 13.1009 40.602 13.0681 40.3085 13.0749C40.143 13.078 39.978 13.0943 39.815 13.1236C39.6063 13.1722 39.4024 13.2395 39.2057 13.3247C38.988 13.4423 38.7837 13.5832 38.5965 13.7451C38.3853 13.939 38.2118 14.1704 38.0847 14.4274C37.9026 14.7551 37.7712 15.1084 37.6948 15.4754C37.595 15.95 37.548 16.4343 37.5546 16.9193C37.547 17.4654 37.6105 18.0102 37.7435 18.5399C37.848 18.9759 38.0318 19.389 38.2858 19.7585C38.5093 20.0753 38.8089 20.3309 39.157 20.5018C39.5067 20.6837 39.8961 20.7759 40.2902 20.7698C40.7075 20.7855 41.1232 20.7107 41.5088 20.5505C41.794 20.4165 42.049 20.2258 42.2581 19.99C42.4286 19.7859 42.5607 19.5526 42.6481 19.3015C42.7395 19.07 42.8187 18.8507 42.8674 18.6923H45.1826C45.0906 19.3331 44.8843 19.9522 44.5733 20.52C44.3002 21.0106 43.9363 21.4448 43.501 21.7995C43.0652 22.1377 42.5689 22.39 42.0388 22.5428C40.759 22.9268 39.387 22.8666 38.1456 22.3722C37.5323 22.1075 36.9882 21.7052 36.5555 21.1963C36.1038 20.6471 35.7662 20.0133 35.5624 19.332C35.3213 18.5426 35.2061 17.7202 35.2212 16.8949C35.2121 16.2676 35.2796 15.6415 35.4222 15.0306C35.5304 14.518 35.7066 14.0221 35.9462 13.5562C36.1729 13.1452 36.4559 12.7679 36.787 12.4351C37.0928 12.1256 37.4441 11.8647 37.8288 11.6614C38.205 11.4587 38.6038 11.3013 39.0169 11.1923C39.429 11.1005 39.8498 11.0535 40.272 11.0521C40.8181 11.0434 41.3631 11.1069 41.8926 11.241C42.3191 11.3585 42.7286 11.5305 43.1111 11.7528C43.4485 11.9498 43.7545 12.1962 44.0189 12.4839C44.2489 12.7436 44.453 13.0252 44.6282 13.3247C44.7688 13.6053 44.8869 13.8966 44.9815 14.1959C45.0566 14.4603 45.1036 14.7319 45.1217 15.0062H42.8309L42.7212 14.6224C42.6729 14.481 42.6117 14.3444 42.5384 14.2142Z" fill="#CAC6D6"/>
<path d="M54.2243 14.2264H51.3851L48.284 17.3702V14.2264H46.1394V22.5062H48.2779V19.8925L49.1491 19.003L51.5862 22.5062H54.3827L50.8246 17.6687L54.2243 14.2264Z" fill="#CAC6D6"/>
<path fill-rule="evenodd" clip-rule="evenodd" d="M54.2853 16.6081C54.4595 16.0922 54.7468 15.6218 55.1261 15.2311C55.5013 14.8387 55.9563 14.5313 56.4603 14.3294C57.0195 14.1037 57.6181 13.9919 58.2211 14.0004C58.8341 13.9903 59.443 14.1021 60.0123 14.3294C60.5136 14.5299 60.9648 14.8377 61.3344 15.2311C61.6996 15.6417 61.9848 16.117 62.1752 16.6324C62.5488 17.7745 62.5488 19.0058 62.1752 20.1479C61.9863 20.664 61.7009 21.1395 61.3344 21.5492C60.9599 21.9368 60.51 22.2437 60.0123 22.4509C59.443 22.6782 58.8341 22.79 58.2211 22.7799C57.6181 22.7884 57.0195 22.6766 56.4603 22.4509C55.9599 22.2423 55.5062 21.9357 55.1261 21.5492C54.7381 21.1392 54.4503 20.645 54.2853 20.1052C53.8873 18.9672 53.8873 17.7278 54.2853 16.5898V16.6081ZM56.3385 19.2827C56.3865 19.5767 56.4965 19.8571 56.6614 20.1052C56.8111 20.3555 57.0204 20.5648 57.2707 20.7145C57.5576 20.8654 57.8789 20.9389 58.2028 20.9277C58.5428 20.9432 58.8809 20.8697 59.1837 20.7145C59.429 20.5715 59.6376 20.3733 59.793 20.1357C59.9527 19.8893 60.0624 19.614 60.1159 19.3254C60.2458 18.7004 60.2458 18.0555 60.1159 17.4306C60.0614 17.1365 59.9518 16.8554 59.793 16.602C59.6259 16.3432 59.3909 16.1354 59.1137 16.0011C58.8365 15.8668 58.5277 15.8112 58.2211 15.8404C57.8971 15.8292 57.5758 15.9027 57.2889 16.0536C57.0402 16.2053 56.8313 16.4142 56.6797 16.6629C56.5097 16.9102 56.3934 17.1904 56.3385 17.4854C56.2716 17.7939 56.2349 18.1081 56.2288 18.4237C56.2378 18.7129 56.2745 19.0005 56.3385 19.2827Z" fill="#CAC6D6"/>
<path d="M66.4703 17.5097L66.5008 15.9683H69.084V22.5057H71.2104V14.171H64.5511L64.4902 17.3026C64.4719 18.0337 64.4415 18.6247 64.3988 19.0877C64.3612 19.4575 64.2877 19.8227 64.1795 20.1783C64.1248 20.3837 64.0103 20.5682 63.8505 20.7084C63.7316 20.8135 63.5764 20.8682 63.4179 20.8607C63.2882 20.8717 63.1577 20.8717 63.028 20.8607L62.7477 20.7693V22.5971C62.8926 22.657 63.0439 22.6999 63.1986 22.725C63.357 22.7555 63.558 22.7555 63.8078 22.7555C64.2555 22.7744 64.6987 22.6599 65.0812 22.4265C65.4284 22.1713 65.7017 21.8286 65.8732 21.4334C66.0847 20.91 66.226 20.361 66.2936 19.8006C66.3728 19.1426 66.4338 18.381 66.4703 17.5097Z" fill="#CAC6D6"/>
<path d="M77.9854 14.2264H80.8489L77.431 17.6687L80.9951 22.5062H78.1986L75.7616 19.003L74.8903 19.8925V22.5062H72.7457V14.2264H74.8903V17.3702L77.9854 14.2264Z" fill="#CAC6D6"/>
<path fill-rule="evenodd" clip-rule="evenodd" d="M81.7324 15.2069C81.3546 15.6081 81.0678 16.086 80.8916 16.6082V16.6325C80.5017 17.7719 80.5017 19.0086 80.8916 20.148C81.0662 20.6708 81.3532 21.1491 81.7324 21.5493C82.1159 21.9346 82.5713 22.241 83.0727 22.451C83.6318 22.6771 84.2305 22.789 84.8335 22.78C85.4445 22.7901 86.0514 22.6783 86.6186 22.451C87.118 22.247 87.5685 21.9397 87.9407 21.5493C88.3114 21.1427 88.5972 20.6663 88.7815 20.148C89.1551 19.0059 89.1551 17.7746 88.7815 16.6325C88.5959 16.1148 88.3102 15.6387 87.9407 15.2312C87.5759 14.8263 87.1238 14.5096 86.6186 14.3052C86.0514 14.0779 85.4445 13.966 84.8335 13.9762C84.2305 13.9671 83.6318 14.079 83.0727 14.3052C82.5676 14.5084 82.111 14.8156 81.7324 15.2069ZM83.2921 20.1114C83.1199 19.863 83.0035 19.5804 82.9509 19.2828C82.8822 19.0013 82.8434 18.7134 82.8351 18.4238C82.8382 18.108 82.8749 17.7935 82.9448 17.4855C82.9997 17.1905 83.116 16.9103 83.286 16.663C83.4376 16.4143 83.6465 16.2054 83.8952 16.0537C84.1843 15.9028 84.5076 15.8294 84.8335 15.8405C85.1417 15.8108 85.4521 15.8667 85.7306 16.0022C86.009 16.1376 86.2446 16.3473 86.4115 16.6082C86.5703 16.8616 86.6799 17.1427 86.7344 17.4368C86.8643 18.0617 86.8643 18.7066 86.7344 19.3316C86.6808 19.6202 86.5711 19.8955 86.4115 20.1419C86.2561 20.3795 86.0475 20.5777 85.8022 20.7207C85.5048 20.8728 85.1734 20.9462 84.8396 20.9339C84.5137 20.945 84.1904 20.8716 83.9013 20.7207C83.6506 20.5716 83.4412 20.3621 83.2921 20.1114Z" fill="#CAC6D6"/>
<path fill-rule="evenodd" clip-rule="evenodd" d="M95.4527 14.3241C95.779 14.3897 96.0933 14.5047 96.3849 14.6653C96.6521 14.83 96.8725 15.0608 97.0246 15.3355C97.1932 15.6669 97.2729 16.0363 97.2561 16.4078C97.2641 16.6134 97.2394 16.8191 97.183 17.017C97.1411 17.1862 97.0666 17.3455 96.9637 17.4862C96.8815 17.6143 96.7761 17.7259 96.6529 17.8152C96.5359 17.9059 96.4092 17.9835 96.2752 18.0467C96.6639 18.1625 97 18.4103 97.2256 18.7473C97.4505 19.0885 97.5653 19.4904 97.5546 19.8988C97.5613 20.2611 97.4971 20.6212 97.3658 20.9589C97.2366 21.266 97.041 21.5407 96.7931 21.7632C96.5344 22.003 96.2268 22.1839 95.8914 22.2932C95.5112 22.4239 95.1113 22.4878 94.7094 22.4821H90.0668V14.2266H94.3317C94.7076 14.2233 95.083 14.2559 95.4527 14.3241ZM94.4901 17.4191C94.623 17.3844 94.7487 17.3267 94.8617 17.2485C94.9566 17.1839 95.0273 17.0896 95.0628 16.9805C95.109 16.8559 95.1297 16.7233 95.1237 16.5905C95.1282 16.4738 95.1074 16.3574 95.0628 16.2494C95.0191 16.1464 94.9499 16.0562 94.8617 15.9874C94.754 15.9079 94.6319 15.85 94.5023 15.8168C94.3158 15.7657 94.1227 15.7431 93.9295 15.7498H92.2175V17.4801H93.8686C94.0772 17.4786 94.2852 17.4582 94.4901 17.4191ZM94.6302 20.8858C94.7911 20.8297 94.9385 20.7405 95.0628 20.6238C95.1609 20.5365 95.2308 20.422 95.2638 20.2949C95.2971 20.1842 95.3135 20.0692 95.3126 19.9537C95.3231 19.7794 95.2961 19.6048 95.2334 19.4419C95.1905 19.3115 95.1017 19.2011 94.9836 19.1312C94.853 19.0318 94.6964 18.9726 94.5327 18.9606C94.3131 18.9262 94.091 18.9099 93.8686 18.9118H92.2175V20.9833H93.8686C94.1261 20.9922 94.3833 20.9593 94.6302 20.8858Z" fill="#CAC6D6"/>
<path fill-rule="evenodd" clip-rule="evenodd" d="M99.2604 15.214C98.8835 15.612 98.5987 16.0879 98.426 16.6082H98.4565C98.0585 17.7462 98.0585 18.9856 98.4565 20.1236C98.6312 20.6465 98.9181 21.1247 99.2973 21.5249C99.6796 21.9116 100.135 22.2182 100.638 22.4266C101.195 22.6528 101.791 22.7647 102.392 22.7556C103.005 22.7658 103.614 22.6539 104.184 22.4266C104.669 22.2245 105.108 21.9261 105.475 21.5493C105.846 21.1427 106.132 20.6663 106.316 20.148C106.69 19.0059 106.69 17.7746 106.316 16.6325C106.13 16.1148 105.845 15.6387 105.475 15.2312C105.109 14.8279 104.657 14.5115 104.153 14.3052C103.584 14.0778 102.975 13.966 102.362 13.9762C101.761 13.9671 101.164 14.079 100.607 14.3052C100.097 14.5058 99.6374 14.8161 99.2604 15.214ZM100.82 20.1114C100.648 19.863 100.532 19.5804 100.479 19.2828C100.413 19.0008 100.374 18.7132 100.363 18.4238C100.37 18.1082 100.406 17.794 100.473 17.4855C100.528 17.1905 100.644 16.9103 100.814 16.663C100.966 16.4143 101.175 16.2054 101.424 16.0537C101.711 15.9036 102.032 15.8302 102.356 15.8405C102.69 15.8212 103.024 15.8884 103.324 16.0355C103.568 16.1786 103.776 16.3743 103.934 16.6082C104.097 16.8599 104.209 17.1415 104.263 17.4368C104.385 18.0625 104.385 18.7058 104.263 19.3316C104.21 19.6214 104.098 19.8972 103.934 20.1419C103.779 20.3804 103.571 20.5788 103.324 20.7207C103.027 20.8733 102.696 20.9468 102.362 20.9339C102.038 20.9443 101.717 20.8708 101.43 20.7207C101.179 20.571 100.97 20.3617 100.82 20.1114Z" fill="#CAC6D6"/>
</svg>
