<svg width="94" height="30" viewBox="0 0 94 30" fill="none" xmlns="http://www.w3.org/2000/svg">
<path d="M69.7538 24.6567H89.2839L87.5252 29.5323H65.308L66.5116 26.1567L69.7538 24.6567ZM93.6364 6.09685L92.4794 9.47244L74.0573 26.1591V29.5346H65.3103L66.5139 26.1591L84.8871 9.47244V6.09685H93.6364ZM89.011 10.9701H69.6628L71.4192 6.09449H93.6364L92.4794 9.47008L89.0087 10.9701H89.011Z" fill="#CAC6D6"/>
<path d="M63.0665 27.7961C62.4787 28.1386 61.8489 28.4528 61.1701 28.7339C60.4914 28.9843 59.752 29.2039 58.9496 29.3906C58.1775 29.5795 57.3448 29.7189 56.4515 29.811C55.5861 29.9362 54.6927 30 53.7667 30V25.1244C54.7837 25.1244 55.7867 25.0606 56.7757 24.9354C57.7647 24.7795 58.7187 24.5929 59.6447 24.3732C60.5707 24.1228 61.45 23.8276 62.2851 23.4827C63.1178 23.1071 63.8898 22.7173 64.6012 22.311L63.0735 27.7937H63.0665V27.7961ZM55.9383 5.62441C57.9443 5.62441 59.6866 5.91969 61.1678 6.51496C62.6816 7.11024 63.8665 7.93701 64.7295 9C65.5926 10.063 66.1337 11.3457 66.3483 12.8433C66.5956 14.3433 66.4579 15.9969 65.9331 17.811L64.452 17.8583L60.657 17.811C60.9952 16.7173 61.1678 15.7323 61.1678 14.8559C61.1958 13.9512 61.0442 13.1835 60.706 12.5598C60.3677 11.9031 59.8126 11.4047 59.0405 11.0598C58.2685 10.6843 57.2352 10.4976 55.9406 10.4976L55.4765 10.0276V6.13465L55.9406 5.61732V5.62205L55.9383 5.62441ZM45.4327 19.5449V15.6094H65.3337L65.9354 17.8134L65.4713 19.5496H45.4303V19.5449H45.4327ZM55.9383 5.62441L56.4001 6.09449V10.0299L55.9383 10.5C54.6438 10.5 53.5172 10.689 52.5585 11.0622C51.6022 11.4047 50.7671 11.9032 50.0604 12.5622C49.349 13.1858 48.7658 13.9535 48.304 14.8583C47.8398 15.7323 47.455 16.7197 47.1471 17.8134C46.8695 18.9071 46.7459 19.9063 46.7762 20.811C46.8392 21.685 47.1144 22.4504 47.6066 23.1071C48.1314 23.7307 48.8871 24.2339 49.8738 24.6071C50.8907 24.9496 52.19 25.1244 53.7597 25.1244L54.2239 25.5945V29.5299L53.7597 30C51.4436 30 49.4399 29.6717 47.7442 29.015C46.0485 28.3583 44.7026 27.4346 43.7183 26.2488C42.7293 25.0299 42.0995 23.5937 41.8219 21.9354C41.5747 20.2488 41.731 18.3874 42.2861 16.3583C42.7176 14.7331 43.3661 13.2638 44.2291 11.9528C45.0945 10.6417 46.1254 9.51496 47.329 8.57717C48.5326 7.63937 49.8598 6.92362 51.3106 6.42047C52.7917 5.88898 54.3335 5.62205 55.9383 5.62205V5.62677V5.62441Z" fill="#CAC6D6"/>
<path d="M37.6887 27.6543C37.0729 27.9969 36.3942 28.3276 35.6548 28.6394C34.9434 28.9205 34.204 29.1709 33.4342 29.3882C32.6622 29.5772 31.8761 29.7165 31.0737 29.8087C30.2713 29.9339 29.483 29.9976 28.7156 29.9976V25.122C29.5459 25.122 30.3973 25.0583 31.2603 24.9331C32.1537 24.7772 33.0517 24.5906 33.9427 24.3709C34.8361 24.1205 35.6851 23.8252 36.4875 23.4803C37.3179 23.1047 38.0923 22.715 38.8037 22.3087L37.6911 27.652H37.6864L37.6887 27.6543ZM30.2364 5.62441C32.0884 5.62441 33.7071 5.91969 35.0973 6.51496C36.4875 7.11024 37.5954 7.93701 38.4305 9C39.2935 10.0299 39.8626 11.3126 40.1449 12.8433C40.4224 14.3433 40.3921 15.9969 40.0539 17.811H34.7311C34.9457 16.7173 35.0413 15.7323 35.0087 14.8559C35.0087 13.9512 34.8221 13.1835 34.4535 12.5598C34.1153 11.9031 33.6045 11.4047 32.9257 11.0598C32.2773 10.6843 31.3839 10.4976 30.241 10.4976L29.7768 10.0276V6.13465L30.241 5.61732V5.62205L30.2364 5.62441ZM21.1162 19.5449V15.6094H39.1652L40.0446 17.8134L39.6714 19.5496H21.1116L21.1162 19.5449ZM30.2364 5.62441L30.7005 6.09449L30.7472 10.0299L30.2364 10.5C29.1564 10.5 28.2024 10.689 27.3674 11.0622C26.537 11.4047 25.8116 11.9032 25.1911 12.5622C24.5753 13.1858 24.0785 13.9535 23.71 14.8583C23.3391 15.7323 23.0476 16.7197 22.8306 17.8134C22.616 18.9071 22.5391 19.9063 22.602 20.811C22.693 21.685 22.9729 22.4504 23.4324 23.1071C23.8966 23.7307 24.559 24.2339 25.4244 24.6071C26.2897 24.9496 27.3814 25.1244 28.7109 25.1244L29.1727 25.5945V29.5299L28.7109 30C26.614 30 24.7899 29.6858 23.2481 29.0622C21.7064 28.4055 20.4561 27.5008 19.4998 26.3433C18.5738 25.1882 17.9417 23.7992 17.6035 22.1717C17.2653 20.5465 17.2932 18.7488 17.6944 16.7811C18.0047 15.0945 18.5435 13.5803 19.3132 12.2362C20.0853 10.8614 21.0089 9.69213 22.0912 8.72126C23.2038 7.75039 24.4494 7.00157 25.8396 6.47244C27.2297 5.91024 28.6946 5.6315 30.2364 5.6315V5.62441Z" fill="#CAC6D6"/>
<path d="M16.197 27.6543C15.7328 27.9354 15.271 28.2 14.8068 28.4528C14.3426 28.6701 13.8808 28.8591 13.4166 29.015C12.9524 29.1709 12.4766 29.2961 11.9844 29.3929C11.5203 29.485 11.0281 29.5323 10.5033 29.5323L10.0391 29.0622L10.9651 25.1268L11.4293 24.6567C12.0777 24.6567 12.7868 24.4843 13.5589 24.1394C14.3613 23.7969 15.2406 23.3409 16.1993 22.7811V27.6543H16.1946H16.197ZM10.5056 29.5299C9.51665 29.5299 8.6233 29.3551 7.82091 29.0126C7.04885 28.6701 6.37009 28.1858 5.78696 27.5622C5.19917 26.9055 4.75599 26.1402 4.44577 25.2661C4.13554 24.3614 3.9816 23.3764 3.9816 22.311V10.9677H0V6.09213H3.9816L5.37178 0H9.21575V6.09213H16.2063V10.9677H9.21575V22.311C9.21575 22.6535 9.2624 22.9843 9.35337 23.2961C9.477 23.5772 9.63094 23.8134 9.81754 23.9976C10.0041 24.1866 10.2327 24.3402 10.5103 24.4677C10.7879 24.5929 11.0981 24.6567 11.4363 24.6567L10.5103 29.5323H10.5056V29.5299Z" fill="#CAC6D6"/>
</svg>
