<svg width="127" height="30" viewBox="0 0 127 30" fill="none" xmlns="http://www.w3.org/2000/svg">
<path d="M126.106 0H118.878C115.571 3.3794 112.025 7.00081 108.38 10.7226L104.505 4.22203H99.2852C101.406 7.94675 103.38 11.4162 105.393 14.9535L91.4476 28.2335H99.0667C100.571 26.6098 102.071 24.9911 103.581 23.3627L107.703 18.9158L111.057 24.5383H116.235L110.63 14.6288L126.106 0Z" fill="#CAC6D6"/>
<path d="M39.2585 23.5281C38.3737 23.5281 37.4911 23.531 36.5984 23.5339C35.6853 23.5369 34.7605 23.5399 33.813 23.5399C33.7926 23.1658 33.795 22.8098 33.7973 22.4625C33.7987 22.259 33.8001 22.0585 33.7968 21.8591C33.7879 20.9957 33.7887 20.1321 33.7895 19.2685C33.7912 17.4219 33.7929 15.5753 33.6994 13.7323C33.5991 11.8212 32.1514 10.3499 30.41 10.043C28.3057 9.67257 26.399 10.6037 25.5003 12.4336C24.7108 14.0422 24.9514 16.2469 26.3474 17.3921C27.1369 18.0414 27.8954 18.5313 29.3859 18.8191L29.3829 23.5384H28.5816C28.0799 23.5384 27.5781 23.503 27.0852 23.4027C21.5616 22.2885 17.7675 16.362 19.9457 10.7026C22.5061 4.06336 32.1676 2.09622 36.9416 7.3734C38.0661 8.61448 39.0135 10.4296 39.1552 12.0529C39.3853 14.7093 39.341 17.3872 39.2958 20.1245C39.2772 21.2479 39.2585 22.3821 39.2585 23.5281Z" fill="#CAC6D6"/>
<path d="M12.7989 16.7545V23.6639H7.34908V16.6719L0 4.39539H5.75235L10.3212 12.0485L14.89 4.39539H20.1746L12.7989 16.7545Z" fill="#CAC6D6"/>
<path fill-rule="evenodd" clip-rule="evenodd" d="M59.3435 11.5246C59.3435 15.9016 56.0409 18.6257 50.7829 18.6257H47.4241V23.6639H41.9743V4.39539H50.7829C56.0394 4.39539 59.3435 7.12104 59.3435 11.5246ZM53.8376 11.5246C53.8376 9.73601 52.7087 8.68972 50.4523 8.68972H47.4241V14.3329H50.4523C52.7087 14.3314 53.8376 13.2866 53.8376 11.5246Z" fill="#CAC6D6"/>
<path fill-rule="evenodd" clip-rule="evenodd" d="M70.7917 18.6257C76.0497 18.6257 79.3524 15.9016 79.3524 11.5246C79.3524 7.12104 76.0497 4.39539 70.7932 4.39539H61.9847V23.6639H67.4345V18.6257H70.7917ZM70.4627 8.68972C72.719 8.68972 73.848 9.73601 73.848 11.5246C73.848 13.2866 72.719 14.3314 70.4627 14.3329H67.4345V8.68972H70.4627Z" fill="#CAC6D6"/>
<path d="M93.7112 4.32986C95.0074 4.31802 95.9675 4.32202 96.9144 4.32597C97.3828 4.32792 97.8483 4.32986 98.3494 4.32986C99.3111 5.97514 100.254 7.60526 101.216 9.2688C102.246 11.0483 103.299 12.8684 104.419 14.7839L88.2466 30H83.5745L88.2412 25.6062C91.9814 22.0848 95.6685 18.6133 99.4355 15.0657C98.5166 13.3761 97.5966 11.6335 96.6624 9.86393C95.6989 8.03893 94.7196 6.18401 93.7112 4.32986Z" fill="#CAC6D6"/>
<path d="M81.9833 23.5727H87.7091V6.88818H81.9833V23.5727Z" fill="#CAC6D6"/>
<path d="M87.7346 0.231899V4.23109H81.9808V0.231899H87.7346Z" fill="#CAC6D6"/>
<path d="M32.3772 18.8211H30.2167V23.533H32.3772V18.8211Z" fill="#CAC6D6"/>
</svg>
